<?xml version="1.0" encoding="UTF-8" standalone="no"?>
<svg
   xmlns:dc="http://purl.org/dc/elements/1.1/"
   xmlns:cc="http://creativecommons.org/ns#"
   xmlns:rdf="http://www.w3.org/1999/02/22-rdf-syntax-ns#"
   xmlns:svg="http://www.w3.org/2000/svg"
   xmlns="http://www.w3.org/2000/svg"
   xmlns:sodipodi="http://sodipodi.sourceforge.net/DTD/sodipodi-0.dtd"
   xmlns:inkscape="http://www.inkscape.org/namespaces/inkscape"
   inkscape:export-ydpi="96"
   inkscape:export-xdpi="96"
   inkscape:export-filename="/home/shay/.config/awesome/volume-control2/drawing.png"
   width="25.693645mm"
   height="1184.8038mm"
   viewBox="0 0 25.693646 1184.8038"
   version="1.1"
   id="svg8"
   inkscape:version="1.0 (4035a4fb49, 2020-05-01)"
   sodipodi:docname="drawing_multiple.svg">
  <defs
     id="defs2">
    <inkscape:path-effect
       lpeversion="0"
       effect="bspline"
       id="path-effect4533"
       is_visible="true"
       weight="33.333333"
       steps="2"
       helper_size="0"
       apply_no_weight="true"
       apply_with_weight="true"
       only_selected="false" />
  </defs>
  <sodipodi:namedview
     id="base"
     pagecolor="#ffffff"
     bordercolor="#666666"
     borderopacity="1.0"
     inkscape:pageopacity="0.0"
     inkscape:pageshadow="2"
     inkscape:zoom="0.7"
     inkscape:cx="191.97087"
     inkscape:cy="3924.5914"
     inkscape:document-units="mm"
     inkscape:current-layer="layer1"
     showgrid="false"
     fit-margin-top="0"
     fit-margin-left="0"
     fit-margin-right="0"
     fit-margin-bottom="0"
     inkscape:window-width="1920"
     inkscape:window-height="1046"
     inkscape:window-x="0"
     inkscape:window-y="34"
     inkscape:window-maximized="0"
     inkscape:document-rotation="0" />
  <metadata
     id="metadata5">
    <rdf:RDF>
      <cc:Work
         rdf:about="">
        <dc:format>image/svg+xml</dc:format>
        <dc:type
           rdf:resource="http://purl.org/dc/dcmitype/StillImage" />
        <dc:title></dc:title>
      </cc:Work>
    </rdf:RDF>
  </metadata>
  <g
     inkscape:label="Layer 1"
     inkscape:groupmode="layer"
     id="layer1"
     transform="translate(-0.02619109,-0.35180664)">
    <path
       style="opacity:1;fill:none;fill-opacity:1;fill-rule:nonzero;stroke:#000000;stroke-width:0.265;stroke-linecap:round;stroke-linejoin:round;stroke-miterlimit:4;stroke-dasharray:none;stroke-dashoffset:0;stroke-opacity:1;paint-order:normal"
       d="m 13.27966,0.4856893 c -0.46768,-0.067 -0.645583,1.6704 -0.801502,6.6817 -0.155919,5.0112997 -0.289605,13.2979997 -0.668176,17.2841997 -0.109768,1.1558 -0.240507,1.9421 -0.385506,2.48 a 5.0081843,7.3705357 78.370321 0 0 -4.9852255,-0.2331 5.0081843,7.3705357 78.370321 0 0 -6.20944006,6.3914 5.0081843,7.3705357 78.370321 0 0 8.22895486,3.4194 5.0081843,7.3705357 78.370321 0 0 6.2430307,-5.2405 l 0.02584,0.02 c 0.133636,-1.2472 0.262364,-2.4496 0.239263,-6.535 -0.0231,-4.0853 -0.19453,-10.4745 -0.127641,-13.8632 0.06689,-3.3887997 0.378759,-3.5225997 0.913123,-3.1883997 0.534363,0.3341 1.291687,1.1362 2.513541,2.3749997 1.221854,1.2388 2.907961,2.9143 3.732072,4.8297 0.824109,1.9153 0.786165,4.0703 0.922941,5.6601 0.136776,1.5899 0.448218,2.6143 1.183391,1.7901 0.735172,-0.8243 1.89325,-3.4964 1.336353,-6.2803 -0.556902,-2.7839 -2.828146,-5.6791 -4.810563,-7.6614997 -1.98242,-1.9824 -3.675428,-3.0516 -4.900478,-4.5217 -1.225047,-1.4701 -1.9823,-3.3407 -2.449978,-3.4075 z"
       id="path4518"
       inkscape:connector-curvature="0" />
    <g
       transform="translate(0,0.53988614)"
       id="g1417">
      <path
         id="rect1069"
         style="opacity:1;fill:#119c4a;fill-opacity:1;fill-rule:nonzero;stroke:none;stroke-width:0;stroke-linecap:round;stroke-linejoin:round;stroke-miterlimit:4;stroke-dasharray:none;stroke-dashoffset:0;stroke-opacity:1;paint-order:normal"
         d="m 8.5839844,271.73242 a 18.928571,27.857143 78.370321 0 0 23.2871096,2.88477 18.928571,27.857143 78.370321 0 0 8.755859,-2.88477 z"
         transform="matrix(0.26458333,0,0,0.26458333,0.02620305,0.35180611)" />
      <path
         style="opacity:1;fill:none;fill-opacity:1;fill-rule:nonzero;stroke:#000000;stroke-width:0.265;stroke-linecap:round;stroke-linejoin:round;stroke-miterlimit:4;stroke-dasharray:none;stroke-dashoffset:0;stroke-opacity:1;paint-order:normal"
         d="m 13.27966,36.987389 c -0.46768,-0.067 -0.645583,1.6705 -0.801502,6.6818 -0.155919,5.0113 -0.289605,13.298 -0.668176,17.2842 -0.109768,1.1558 -0.240507,1.942 -0.385506,2.4799 a 5.0081843,7.3705357 78.370321 0 0 -4.9852255,-0.233 5.0081843,7.3705357 78.370321 0 0 -6.20944003,6.3913 5.0081843,7.3705357 78.370321 0 0 8.22895483,3.4194 5.0081843,7.3705357 78.370321 0 0 6.2430307,-5.2405 l 0.02584,0.02 c 0.133636,-1.2473 0.262364,-2.4497 0.239263,-6.535 -0.0231,-4.0854 -0.19453,-10.4745 -0.127641,-13.8633 0.06689,-3.3887 0.378759,-3.5226 0.913123,-3.1884 0.534363,0.3342 1.291687,1.1363 2.513541,2.3751 1.221854,1.2388 2.907961,2.9143 3.732072,4.8296 0.824109,1.9154 0.786165,4.0703 0.922941,5.6602 0.136776,1.5898 0.448218,2.6143 1.183391,1.79 0.735172,-0.8242 1.89325,-3.4963 1.336353,-6.2802 -0.556902,-2.7839 -2.828146,-5.6791 -4.810563,-7.6616 -1.98242,-1.9824 -3.675428,-3.0516 -4.900478,-4.5216 -1.225047,-1.4701 -1.9823,-3.3407 -2.449978,-3.4076 z"
         id="path1071"
         inkscape:connector-curvature="0" />
    </g>
    <g
       transform="translate(0,1.0581721)"
       id="g1421">
      <path
         id="rect1073"
         style="opacity:1;fill:#119c4a;fill-opacity:1;fill-rule:nonzero;stroke:none;stroke-width:0;stroke-linecap:round;stroke-linejoin:round;stroke-miterlimit:4;stroke-dasharray:none;stroke-dashoffset:0;stroke-opacity:1;paint-order:normal"
         d="m 3.4960938,405.46094 a 18.928571,27.857143 78.370321 0 0 28.3750002,7.19726 18.928571,27.857143 78.370321 0 0 15.732422,-7.19726 z"
         transform="matrix(0.26458333,0,0,0.26458333,0.02620305,0.35180611)" />
      <path
         style="opacity:1;fill:none;fill-opacity:1;fill-rule:nonzero;stroke:#000000;stroke-width:0.265;stroke-linecap:round;stroke-linejoin:round;stroke-miterlimit:4;stroke-dasharray:none;stroke-dashoffset:0;stroke-opacity:1;paint-order:normal"
         d="m 13.27966,73.510689 c -0.46768,-0.067 -0.645583,1.6704 -0.801502,6.6817 -0.155919,5.0113 -0.289605,13.298 -0.668176,17.2842 -0.109768,1.1558 -0.240507,1.9421 -0.385506,2.48 a 5.0081843,7.3705357 78.370321 0 0 -4.9852255,-0.2331 5.0081843,7.3705357 78.370321 0 0 -6.20944006,6.391401 5.0081843,7.3705357 78.370321 0 0 8.22895486,3.4194 5.0081843,7.3705357 78.370321 0 0 6.2430307,-5.2405 l 0.02584,0.02 c 0.133636,-1.2473 0.262364,-2.4497 0.239263,-6.535001 -0.0231,-4.0854 -0.19453,-10.4745 -0.127641,-13.8632 0.06689,-3.3888 0.378759,-3.5226 0.913123,-3.1885 0.534363,0.3342 1.291687,1.1363 2.513541,2.3751 1.221854,1.2388 2.907961,2.9143 3.732072,4.8296 0.824109,1.9154 0.786165,4.0703 0.922941,5.6602 0.136776,1.5898 0.448218,2.6143 1.183391,1.79 0.735172,-0.8242 1.89325,-3.4963 1.336353,-6.2802 -0.556902,-2.7839 -2.828146,-5.6791 -4.810563,-7.6615 -1.98242,-1.9825 -3.675428,-3.0517 -4.900478,-4.5217 -1.225047,-1.4701 -1.9823,-3.3407 -2.449978,-3.4076 z"
         id="path1075"
         inkscape:connector-curvature="0" />
    </g>
    <g
       transform="translate(0,1.598057)"
       id="g1425">
      <path
         id="rect1077"
         style="opacity:1;fill:#119c4a;fill-opacity:1;fill-rule:nonzero;stroke:none;stroke-width:0;stroke-linecap:round;stroke-linejoin:round;stroke-miterlimit:4;stroke-dasharray:none;stroke-dashoffset:0;stroke-opacity:1;paint-order:normal"
         d="m 2.0859375,539.10938 c -0.3634019,0 -0.640808,0.0154 -0.9296875,0.0273 a 18.928571,27.857143 78.370321 0 0 30.714844,11.48047 18.928571,27.857143 78.370321 0 0 19.976562,-11.50781 z"
         transform="matrix(0.26458333,0,0,0.26458333,0.02620305,0.35180611)" />
      <path
         inkscape:connector-curvature="0"
         id="path1079"
         d="m 13.27966,110.01239 c -0.46768,-0.067 -0.645583,1.6705 -0.801502,6.6818 -0.155919,5.0113 -0.289605,13.298 -0.668176,17.2842 -0.109768,1.1558 -0.240507,1.9421 -0.385506,2.48 a 5.0081843,7.3705357 78.370321 0 0 -4.9852255,-0.2331 5.0081843,7.3705357 78.370321 0 0 -6.20944003,6.3913 5.0081843,7.3705357 78.370321 0 0 8.22895483,3.4195 5.0081843,7.3705357 78.370321 0 0 6.2430307,-5.2405 l 0.02584,0.02 c 0.133636,-1.2473 0.262364,-2.4497 0.239263,-6.535 -0.0231,-4.0854 -0.19453,-10.4745 -0.127641,-13.8633 0.06689,-3.3887 0.378759,-3.5226 0.913123,-3.1884 0.534363,0.3341 1.291687,1.1362 2.513541,2.375 1.221854,1.2388 2.907961,2.9144 3.732072,4.8297 0.824109,1.9154 0.786165,4.0703 0.922941,5.6601 0.136776,1.5899 0.448218,2.6144 1.183391,1.7901 0.735172,-0.8242 1.89325,-3.4963 1.336353,-6.2802 -0.556902,-2.784 -2.828146,-5.6792 -4.810563,-7.6616 -1.98242,-1.9824 -3.675428,-3.0516 -4.900478,-4.5217 -1.225047,-1.4701 -1.9823,-3.3406 -2.449978,-3.4075 z"
         style="opacity:1;fill:none;fill-opacity:1;fill-rule:nonzero;stroke:#000000;stroke-width:0.265;stroke-linecap:round;stroke-linejoin:round;stroke-miterlimit:4;stroke-dasharray:none;stroke-dashoffset:0;stroke-opacity:1;paint-order:normal" />
    </g>
    <g
       transform="translate(0,2.1379399)"
       id="g1429">
      <path
         id="rect1081"
         style="opacity:1;fill:#119c4a;fill-opacity:1;fill-rule:nonzero;stroke:none;stroke-width:0;stroke-linecap:round;stroke-linejoin:round;stroke-miterlimit:4;stroke-dasharray:none;stroke-dashoffset:0;stroke-opacity:1;paint-order:normal"
         d="m 2.0859375,672.75781 c -0.6752478,0 -1.23916674,0.0323 -1.58007812,0.0801 a 18.928571,27.857143 78.370321 0 0 0.26367187,2.81445 18.928571,27.857143 78.370321 0 0 31.10156275,12.92383 18.928571,27.857143 78.370321 0 0 22.509765,-15.81836 z"
         transform="matrix(0.26458333,0,0,0.26458333,0.02620305,0.35180611)" />
      <path
         style="opacity:1;fill:none;fill-opacity:1;fill-rule:nonzero;stroke:#000000;stroke-width:0.265;stroke-linecap:round;stroke-linejoin:round;stroke-miterlimit:4;stroke-dasharray:none;stroke-dashoffset:0;stroke-opacity:1;paint-order:normal"
         d="m 13.27966,146.51419 c -0.46768,-0.067 -0.645583,1.6704 -0.801502,6.6817 -0.155919,5.0114 -0.289605,13.298 -0.668176,17.28426 -0.109768,1.15581 -0.240507,1.94206 -0.385506,2.47995 a 5.0081843,7.3705357 78.370321 0 0 -4.9852255,-0.23306 5.0081843,7.3705357 78.370321 0 0 -6.20944006,6.39135 5.0081843,7.3705357 78.370321 0 0 8.22895486,3.41943 5.0081843,7.3705357 78.370321 0 0 6.2430307,-5.24051 l 0.02584,0.0196 c 0.133636,-1.24726 0.262364,-2.44966 0.239263,-6.53501 -0.0231,-4.08531 -0.19453,-10.47451 -0.127641,-13.86321 0.06689,-3.3888 0.378759,-3.5226 0.913123,-3.1885 0.534363,0.3342 1.291687,1.1363 2.513541,2.3751 1.221854,1.2388 2.907961,2.9143 3.732072,4.8297 0.824109,1.9153 0.786165,4.0702 0.922941,5.6601 0.136776,1.5898 0.448218,2.61431 1.183391,1.7901 0.735172,-0.8243 1.89325,-3.4964 1.336353,-6.2803 -0.556902,-2.7839 -2.828146,-5.6791 -4.810563,-7.6615 -1.98242,-1.9825 -3.675428,-3.0516 -4.900478,-4.5217 -1.225047,-1.4701 -1.9823,-3.3407 -2.449978,-3.4076 z"
         id="path1083"
         inkscape:connector-curvature="0" />
    </g>
    <g
       transform="translate(0,2.6778142)"
       id="g1433">
      <path
         id="rect1085"
         style="opacity:1;fill:#119c4a;fill-opacity:1;fill-rule:nonzero;stroke:none;stroke-width:0;stroke-linecap:round;stroke-linejoin:round;stroke-miterlimit:4;stroke-dasharray:none;stroke-dashoffset:0;stroke-opacity:1;paint-order:normal"
         d="m 2.0859375,810.7168 c -0.6753248,0 -1.23918502,0.0343 -1.58007812,0.082 a 18.928571,27.857143 78.370321 0 0 0.26367187,2.81445 18.928571,27.857143 78.370321 0 0 31.10156275,12.92383 18.928571,27.857143 78.370321 0 0 22.509765,-15.82031 z"
         transform="matrix(0.26458333,0,0,0.26458333,0.02620305,0.35180611)" />
      <path
         inkscape:connector-curvature="0"
         id="path1087"
         d="m 13.27966,183.01593 c -0.46768,-0.0669 -0.645583,1.67045 -0.801502,6.68177 -0.155919,5.01131 -0.289605,13.29799 -0.668176,17.28422 -0.109768,1.15581 -0.240507,1.94206 -0.385506,2.47995 a 5.0081843,7.3705357 78.370321 0 0 -4.9852255,-0.23306 5.0081843,7.3705357 78.370321 0 0 -6.20944003,6.39135 5.0081843,7.3705357 78.370321 0 0 8.22895483,3.41943 5.0081843,7.3705357 78.370321 0 0 6.2430307,-5.24051 l 0.02584,0.0196 c 0.133636,-1.24726 0.262364,-2.44966 0.239263,-6.53501 -0.0231,-4.08535 -0.19453,-10.47449 -0.127641,-13.86324 0.06689,-3.38875 0.378759,-3.52259 0.913123,-3.18844 0.534363,0.33416 1.291687,1.13625 2.513541,2.37505 1.221854,1.2388 2.907961,2.91433 3.732072,4.82968 0.824109,1.91536 0.786165,4.07027 0.922941,5.66013 0.136776,1.58985 0.448218,2.61432 1.183391,1.79007 0.735172,-0.82425 1.89325,-3.49633 1.336353,-6.28024 -0.556902,-2.78392 -2.828146,-5.67913 -4.810563,-7.66156 -1.98242,-1.98242 -3.675428,-3.05161 -4.900478,-4.52169 -1.225047,-1.47007 -1.9823,-3.34065 -2.449978,-3.40754 z"
         style="opacity:1;fill:none;fill-opacity:1;fill-rule:nonzero;stroke:#000000;stroke-width:0.265;stroke-linecap:round;stroke-linejoin:round;stroke-miterlimit:4;stroke-dasharray:none;stroke-dashoffset:0;stroke-opacity:1;paint-order:normal" />
    </g>
    <g
       transform="translate(0,3.1961786)"
       id="g1437">
      <path
         id="rect1089"
         style="opacity:1;fill:#119c4a;fill-opacity:1;fill-rule:nonzero;stroke:none;stroke-width:0;stroke-linecap:round;stroke-linejoin:round;stroke-miterlimit:4;stroke-dasharray:none;stroke-dashoffset:0;stroke-opacity:1;paint-order:normal"
         d="M 3.4277344,940.13477 A 18.928571,27.857143 78.370321 0 0 0.76953125,951.6543 18.928571,27.857143 78.370321 0 0 31.871094,964.57812 18.928571,27.857143 78.370321 0 0 55.466797,944.77148 l 0.09766,0.0723 c 0.156773,-1.4632 0.310673,-2.94754 0.447266,-4.70898 z"
         transform="matrix(0.26458333,0,0,0.26458333,0.02620305,0.35180611)" />
      <path
         inkscape:connector-curvature="0"
         id="path1091"
         d="m 13.27966,219.5392 c -0.46768,-0.0669 -0.645583,1.67045 -0.801502,6.68177 -0.155919,5.01132 -0.289605,13.298 -0.668176,17.28423 -0.109768,1.15581 -0.240507,1.94205 -0.385506,2.47994 a 5.0081843,7.3705357 78.370321 0 0 -4.9852255,-0.23306 5.0081843,7.3705357 78.370321 0 0 -6.20944006,6.39135 5.0081843,7.3705357 78.370321 0 0 8.22895486,3.41943 5.0081843,7.3705357 78.370321 0 0 6.2430307,-5.24051 l 0.02584,0.0196 c 0.133636,-1.24726 0.262364,-2.44966 0.239263,-6.535 -0.0231,-4.08536 -0.19453,-10.47449 -0.127641,-13.86325 0.06689,-3.38875 0.378759,-3.52259 0.913123,-3.18843 0.534363,0.33415 1.291687,1.13624 2.513541,2.37504 1.221854,1.23881 2.907961,2.91433 3.732072,4.82969 0.824109,1.91536 0.786165,4.07027 0.922941,5.66012 0.136776,1.58986 0.448218,2.61433 1.183391,1.79008 0.735172,-0.82426 1.89325,-3.49633 1.336353,-6.28025 -0.556902,-2.78391 -2.828146,-5.67913 -4.810563,-7.66155 -1.98242,-1.98243 -3.675428,-3.05162 -4.900478,-4.52169 -1.225047,-1.47008 -1.9823,-3.34065 -2.449978,-3.40755 z"
         style="opacity:1;fill:none;fill-opacity:1;fill-rule:nonzero;stroke:#000000;stroke-width:0.265;stroke-linecap:round;stroke-linejoin:round;stroke-miterlimit:4;stroke-dasharray:none;stroke-dashoffset:0;stroke-opacity:1;paint-order:normal" />
    </g>
    <g
       transform="translate(0,3.7360429)"
       id="g1441">
      <path
         id="rect1093"
         style="opacity:1;fill:#119c4a;fill-opacity:1;fill-rule:nonzero;stroke:none;stroke-width:0;stroke-linecap:round;stroke-linejoin:round;stroke-miterlimit:4;stroke-dasharray:none;stroke-dashoffset:0;stroke-opacity:1;paint-order:normal"
         d="m 7.1699219,1073.7832 a 18.928571,27.857143 78.370321 0 0 -6.40039065,15.8301 18.928571,27.857143 78.370321 0 0 31.10156275,12.9238 18.928571,27.857143 78.370321 0 0 23.595703,-19.8066 l 0.09766,0.074 c 0.267067,-2.4926 0.526569,-4.9878 0.701172,-9.0215 z"
         transform="matrix(0.26458333,0,0,0.26458333,0.02620305,0.35180611)" />
      <path
         style="opacity:1;fill:none;fill-opacity:1;fill-rule:nonzero;stroke:#000000;stroke-width:0.265;stroke-linecap:round;stroke-linejoin:round;stroke-miterlimit:4;stroke-dasharray:none;stroke-dashoffset:0;stroke-opacity:1;paint-order:normal"
         d="m 13.27966,256.04097 c -0.46768,-0.0669 -0.645583,1.67045 -0.801502,6.68177 -0.155919,5.01131 -0.289605,13.29799 -0.668176,17.28422 -0.109768,1.15581 -0.240507,1.94206 -0.385506,2.47995 a 5.0081843,7.3705357 78.370321 0 0 -4.9852255,-0.23306 5.0081843,7.3705357 78.370321 0 0 -6.20944003,6.39135 5.0081843,7.3705357 78.370321 0 0 8.22895483,3.41943 5.0081843,7.3705357 78.370321 0 0 6.2430307,-5.24051 l 0.02584,0.0196 c 0.133636,-1.24726 0.262364,-2.44966 0.239263,-6.53501 -0.0231,-4.08535 -0.19453,-10.47449 -0.127641,-13.86324 0.06689,-3.38875 0.378759,-3.52259 0.913123,-3.18844 0.534363,0.33416 1.291687,1.13625 2.513541,2.37505 1.221854,1.2388 2.907961,2.91433 3.732072,4.82968 0.824109,1.91536 0.786165,4.07027 0.922941,5.66013 0.136776,1.58985 0.448218,2.61432 1.183391,1.79007 0.735172,-0.82425 1.89325,-3.49633 1.336353,-6.28024 -0.556902,-2.78392 -2.828146,-5.67913 -4.810563,-7.66156 -1.98242,-1.98242 -3.675428,-3.05161 -4.900478,-4.52169 -1.225047,-1.47007 -1.9823,-3.34065 -2.449978,-3.40754 z"
         id="path1095"
         inkscape:connector-curvature="0" />
    </g>
    <g
       transform="translate(0,4.2758834)"
       id="g1445">
      <path
         id="rect1097"
         style="opacity:1;fill:#119c4a;fill-opacity:1;fill-rule:nonzero;stroke:none;stroke-width:0;stroke-linecap:round;stroke-linejoin:round;stroke-miterlimit:4;stroke-dasharray:none;stroke-dashoffset:0;stroke-opacity:1;paint-order:normal"
         d="m 7.1699219,1211.7422 a 18.928571,27.857143 78.370321 0 0 -6.40039065,15.8301 18.928571,27.857143 78.370321 0 0 31.10156275,12.9238 18.928571,27.857143 78.370321 0 0 23.595703,-19.8066 l 0.09766,0.074 c 0.267098,-2.4929 0.526569,-4.987 0.701172,-9.0215 z"
         transform="matrix(0.26458333,0,0,0.26458333,0.02620305,0.35180611)" />
      <path
         style="opacity:1;fill:none;fill-opacity:1;fill-rule:nonzero;stroke:#000000;stroke-width:0.265;stroke-linecap:round;stroke-linejoin:round;stroke-miterlimit:4;stroke-dasharray:none;stroke-dashoffset:0;stroke-opacity:1;paint-order:normal"
         d="m 13.27966,292.54278 c -0.46768,-0.0669 -0.645583,1.67045 -0.801502,6.68176 -0.155919,5.01132 -0.289605,13.298 -0.668176,17.28423 -0.109768,1.15581 -0.240507,1.94206 -0.385506,2.47995 a 5.0081843,7.3705357 78.370321 0 0 -4.9852255,-0.23306 5.0081843,7.3705357 78.370321 0 0 -6.20944006,6.39135 5.0081843,7.3705357 78.370321 0 0 8.22895486,3.41943 5.0081843,7.3705357 78.370321 0 0 6.2430307,-5.24051 l 0.02584,0.0196 c 0.133636,-1.24726 0.262364,-2.44966 0.239263,-6.53501 -0.0231,-4.08535 -0.19453,-10.47449 -0.127641,-13.86324 0.06689,-3.38876 0.378759,-3.5226 0.913123,-3.18844 0.534363,0.33416 1.291687,1.13625 2.513541,2.37505 1.221854,1.2388 2.907961,2.91432 3.732072,4.82968 0.824109,1.91536 0.786165,4.07027 0.922941,5.66012 0.136776,1.58986 0.448218,2.61433 1.183391,1.79008 0.735172,-0.82425 1.89325,-3.49633 1.336353,-6.28024 -0.556902,-2.78392 -2.828146,-5.67913 -4.810563,-7.66156 -1.98242,-1.98243 -3.675428,-3.05161 -4.900478,-4.52169 -1.225047,-1.47007 -1.9823,-3.34065 -2.449978,-3.40754 z"
         id="path1099"
         inkscape:connector-curvature="0" />
    </g>
    <g
       transform="translate(0,4.8157478)"
       id="g1449">
      <path
         id="rect1101"
         style="opacity:1;fill:#119c4a;fill-opacity:1;fill-rule:nonzero;stroke:none;stroke-width:0;stroke-linecap:round;stroke-linejoin:round;stroke-miterlimit:4;stroke-dasharray:none;stroke-dashoffset:0;stroke-opacity:1;paint-order:normal"
         d="m 25.845703,1341.0801 a 18.928571,27.857143 78.370321 0 0 -1.607422,0.2949 18.928571,27.857143 78.370321 0 0 -23.46874975,24.1562 18.928571,27.857143 78.370321 0 0 31.10156275,12.9239 18.928571,27.857143 78.370321 0 0 23.595703,-19.8067 l 0.09766,0.074 c 0.416809,-3.8902 0.81701,-7.7645 0.896485,-17.6426 H 43.355469 c -0.09104,0.408 -0.181029,0.8257 -0.275391,1.1758 a 18.928571,27.857143 78.370321 0 0 -4.585937,-1.1758 z"
         transform="matrix(0.26458333,0,0,0.26458333,0.02620305,0.35180611)" />
      <path
         inkscape:connector-curvature="0"
         id="path1103"
         d="m 13.27966,329.04455 c -0.46768,-0.0669 -0.645583,1.67045 -0.801502,6.68177 -0.155919,5.01131 -0.289605,13.29799 -0.668176,17.28422 -0.109768,1.15581 -0.240507,1.94206 -0.385506,2.47995 a 5.0081843,7.3705357 78.370321 0 0 -4.9852255,-0.23306 5.0081843,7.3705357 78.370321 0 0 -6.20944003,6.39135 5.0081843,7.3705357 78.370321 0 0 8.22895483,3.41943 5.0081843,7.3705357 78.370321 0 0 6.2430307,-5.24051 l 0.02584,0.0196 c 0.133636,-1.24726 0.262364,-2.44966 0.239263,-6.53501 -0.0231,-4.08535 -0.19453,-10.47449 -0.127641,-13.86324 0.06689,-3.38875 0.378759,-3.52259 0.913123,-3.18844 0.534363,0.33416 1.291687,1.13625 2.513541,2.37505 1.221854,1.2388 2.907961,2.91433 3.732072,4.82968 0.824109,1.91536 0.786165,4.07027 0.922941,5.66013 0.136776,1.58985 0.448218,2.61432 1.183391,1.79007 0.735172,-0.82425 1.89325,-3.49633 1.336353,-6.28024 -0.556902,-2.78392 -2.828146,-5.67913 -4.810563,-7.66156 -1.98242,-1.98242 -3.675428,-3.05161 -4.900478,-4.52169 -1.225047,-1.47007 -1.9823,-3.34065 -2.449978,-3.40754 z"
         style="opacity:1;fill:none;fill-opacity:1;fill-rule:nonzero;stroke:#000000;stroke-width:0.265;stroke-linecap:round;stroke-linejoin:round;stroke-miterlimit:4;stroke-dasharray:none;stroke-dashoffset:0;stroke-opacity:1;paint-order:normal" />
    </g>
    <g
       transform="translate(0,5.3341122)"
       id="g1453">
      <path
         id="rect1105"
         style="opacity:1;fill:#119c4a;fill-opacity:1;fill-rule:nonzero;stroke:none;stroke-width:0;stroke-linecap:round;stroke-linejoin:round;stroke-miterlimit:4;stroke-dasharray:none;stroke-dashoffset:0;stroke-opacity:1;paint-order:normal"
         d="m 44.091797,1474.8086 c -0.309337,2.3172 -0.647242,4.1362 -1.011719,5.4883 a 18.928571,27.857143 78.370321 0 0 -18.841797,-0.8809 18.928571,27.857143 78.370321 0 0 -23.46874975,24.1563 18.928571,27.857143 78.370321 0 0 31.10156275,12.9238 18.928571,27.857143 78.370321 0 0 23.595703,-19.8066 l 0.09766,0.074 c 0.472397,-4.409 0.922577,-8.7892 0.908203,-21.9551 z"
         transform="matrix(0.26458333,0,0,0.26458333,0.02620305,0.35180611)" />
      <path
         inkscape:connector-curvature="0"
         id="path1107"
         d="m 13.27966,365.56782 c -0.46768,-0.0669 -0.645583,1.67045 -0.801502,6.68177 -0.155919,5.01132 -0.289605,13.298 -0.668176,17.28423 -0.109768,1.15581 -0.240507,1.94205 -0.385506,2.47994 a 5.0081843,7.3705357 78.370321 0 0 -4.9852255,-0.23306 5.0081843,7.3705357 78.370321 0 0 -6.20944006,6.39135 5.0081843,7.3705357 78.370321 0 0 8.22895486,3.41943 5.0081843,7.3705357 78.370321 0 0 6.2430307,-5.24051 l 0.02584,0.0196 c 0.133636,-1.24726 0.262364,-2.44966 0.239263,-6.535 -0.0231,-4.08536 -0.19453,-10.47449 -0.127641,-13.86325 0.06689,-3.38875 0.378759,-3.52259 0.913123,-3.18843 0.534363,0.33415 1.291687,1.13624 2.513541,2.37504 1.221854,1.23881 2.907961,2.91433 3.732072,4.82969 0.824109,1.91536 0.786165,4.07027 0.922941,5.66012 0.136776,1.58986 0.448218,2.61433 1.183391,1.79008 0.735172,-0.82426 1.89325,-3.49633 1.336353,-6.28025 -0.556902,-2.78391 -2.828146,-5.67913 -4.810563,-7.66155 -1.98242,-1.98243 -3.675428,-3.05162 -4.900478,-4.52169 -1.225047,-1.47008 -1.9823,-3.34065 -2.449978,-3.40755 z"
         style="opacity:1;fill:none;fill-opacity:1;fill-rule:nonzero;stroke:#000000;stroke-width:0.265;stroke-linecap:round;stroke-linejoin:round;stroke-miterlimit:4;stroke-dasharray:none;stroke-dashoffset:0;stroke-opacity:1;paint-order:normal" />
    </g>
    <g
       transform="translate(0,5.8739765)"
       id="g1457">
      <path
         id="rect1109"
         style="opacity:1;fill:#119c4a;fill-opacity:1;fill-rule:nonzero;stroke:none;stroke-width:0;stroke-linecap:round;stroke-linejoin:round;stroke-miterlimit:4;stroke-dasharray:none;stroke-dashoffset:0;stroke-opacity:1;paint-order:normal"
         d="m 44.570312,1608.457 c -0.01185,0.1285 -0.02122,0.2996 -0.0332,0.4258 -0.414871,4.3684 -0.909003,7.3401 -1.457031,9.3731 A 18.928571,27.857143 78.370321 0 0 24.238284,1617.375 18.928571,27.857143 78.370321 0 0 0.76953425,1641.5312 18.928571,27.857143 78.370321 0 0 31.871097,1654.4551 18.928571,27.857143 78.370321 0 0 55.4668,1634.6484 l 0.09766,0.074 c 0.505081,-4.7141 0.991608,-9.2586 0.904297,-24.6993 -0.0027,-0.4687 -0.01393,-1.0821 -0.01758,-1.5664 z"
         transform="matrix(0.26458333,0,0,0.26458333,0.02620305,0.35180611)" />
      <path
         style="opacity:1;fill:none;fill-opacity:1;fill-rule:nonzero;stroke:#000000;stroke-width:0.265;stroke-linecap:round;stroke-linejoin:round;stroke-miterlimit:4;stroke-dasharray:none;stroke-dashoffset:0;stroke-opacity:1;paint-order:normal"
         d="m 13.27966,402.06959 c -0.46768,-0.0669 -0.645583,1.67045 -0.801502,6.68177 -0.155919,5.01131 -0.289605,13.29799 -0.668176,17.28422 -0.109768,1.15581 -0.240507,1.94206 -0.385506,2.47995 a 5.0081843,7.3705357 78.370321 0 0 -4.9852255,-0.23306 5.0081843,7.3705357 78.370321 0 0 -6.20944003,6.39135 5.0081843,7.3705357 78.370321 0 0 8.22895483,3.41943 5.0081843,7.3705357 78.370321 0 0 6.2430307,-5.24051 l 0.02584,0.0196 c 0.133636,-1.24726 0.262364,-2.44966 0.239263,-6.53501 -0.0231,-4.08535 -0.19453,-10.47449 -0.127641,-13.86324 0.06689,-3.38875 0.378759,-3.52259 0.913123,-3.18844 0.534363,0.33416 1.291687,1.13625 2.513541,2.37505 1.221854,1.2388 2.907961,2.91433 3.732072,4.82968 0.824109,1.91536 0.786165,4.07027 0.922941,5.66013 0.136776,1.58985 0.448218,2.61432 1.183391,1.79007 0.735172,-0.82425 1.89325,-3.49633 1.336353,-6.28024 -0.556902,-2.78392 -2.828146,-5.67913 -4.810563,-7.66156 -1.98242,-1.98242 -3.675428,-3.05161 -4.900478,-4.52169 -1.225047,-1.47007 -1.9823,-3.34065 -2.449978,-3.40754 z"
         id="path1111"
         inkscape:connector-curvature="0" />
    </g>
    <g
       transform="translate(0,6.4138509)"
       id="g1461">
      <path
         id="rect1113"
         style="opacity:1;fill:#119c4a;fill-opacity:1;fill-rule:nonzero;stroke:none;stroke-width:0;stroke-linecap:round;stroke-linejoin:round;stroke-miterlimit:4;stroke-dasharray:none;stroke-dashoffset:0;stroke-opacity:1;paint-order:normal"
         d="m 44.90625,1742.1055 c -0.11805,1.6626 -0.235841,3.3346 -0.369141,4.7383 -0.414871,4.3684 -0.909003,7.34 -1.457031,9.373 a 18.928571,27.857143 78.370321 0 0 -18.841797,-0.8809 18.928571,27.857143 78.370321 0 0 -23.46874975,24.1563 18.928571,27.857143 78.370321 0 0 31.10156275,12.9238 18.928571,27.857143 78.370321 0 0 23.595703,-19.8066 l 0.09766,0.074 c 0.505081,-4.7141 0.991608,-9.2585 0.904297,-24.6992 -0.0099,-1.7592 -0.04602,-3.9234 -0.06836,-5.8789 z"
         transform="matrix(0.26458333,0,0,0.26458333,0.02620305,0.35180611)" />
      <path
         inkscape:connector-curvature="0"
         id="path1115"
         d="m 13.27966,438.57135 c -0.46768,-0.0669 -0.645583,1.67045 -0.801502,6.68176 -0.155919,5.01132 -0.289605,13.298 -0.668176,17.28423 -0.109768,1.15581 -0.240507,1.94206 -0.385506,2.47995 a 5.0081843,7.3705357 78.370321 0 0 -4.9852255,-0.23306 5.0081843,7.3705357 78.370321 0 0 -6.20944006,6.39135 5.0081843,7.3705357 78.370321 0 0 8.22895486,3.41943 5.0081843,7.3705357 78.370321 0 0 6.2430307,-5.24051 l 0.02584,0.0196 c 0.133636,-1.24726 0.262364,-2.44966 0.239263,-6.53501 -0.0231,-4.08535 -0.19453,-10.47449 -0.127641,-13.86324 0.06689,-3.38876 0.378759,-3.5226 0.913123,-3.18844 0.534363,0.33416 1.291687,1.13625 2.513541,2.37505 1.221854,1.2388 2.907961,2.91432 3.732072,4.82968 0.824109,1.91536 0.786165,4.07027 0.922941,5.66012 0.136776,1.58986 0.448218,2.61433 1.183391,1.79008 0.735172,-0.82425 1.89325,-3.49633 1.336353,-6.28024 -0.556902,-2.78392 -2.828146,-5.67913 -4.810563,-7.66156 -1.98242,-1.98243 -3.675428,-3.05161 -4.900478,-4.52169 -1.225047,-1.47007 -1.9823,-3.34065 -2.449978,-3.40754 z"
         style="opacity:1;fill:none;fill-opacity:1;fill-rule:nonzero;stroke:#000000;stroke-width:0.265;stroke-linecap:round;stroke-linejoin:round;stroke-miterlimit:4;stroke-dasharray:none;stroke-dashoffset:0;stroke-opacity:1;paint-order:normal" />
    </g>
    <g
       transform="translate(0,6.9537153)"
       id="g1465">
      <path
         id="rect1117"
         style="opacity:1;fill:#119c4a;fill-opacity:1;fill-rule:nonzero;stroke:none;stroke-width:0;stroke-linecap:round;stroke-linejoin:round;stroke-miterlimit:4;stroke-dasharray:none;stroke-dashoffset:0;stroke-opacity:1;paint-order:normal"
         d="m 45.183594,1875.752 c -0.194396,3.3518 -0.403739,6.4947 -0.646485,9.0507 -0.414871,4.3685 -0.909003,7.3401 -1.457031,9.3731 a 18.928571,27.857143 78.370321 0 0 -18.841797,-0.8809 18.928571,27.857143 78.370321 0 0 -23.46874975,24.1563 18.928571,27.857143 78.370321 0 0 31.10156275,12.9238 18.928571,27.857143 78.370321 0 0 23.595703,-19.8066 l 0.09766,0.074 c 0.505081,-4.7141 0.991608,-9.2585 0.904297,-24.6992 -0.01724,-3.0496 -0.06747,-6.617 -0.117188,-10.1914 z m 42.269531,0 c 0.715632,2.3014 1.822543,3.0704 3.550781,1.1328 0.273225,-0.3064 0.564876,-0.6977 0.861328,-1.1328 z"
         transform="matrix(0.26458333,0,0,0.26458333,0.02620305,0.35180611)" />
      <path
         style="opacity:1;fill:none;fill-opacity:1;fill-rule:nonzero;stroke:#000000;stroke-width:0.265;stroke-linecap:round;stroke-linejoin:round;stroke-miterlimit:4;stroke-dasharray:none;stroke-dashoffset:0;stroke-opacity:1;paint-order:normal"
         d="m 13.27966,475.07312 c -0.46768,-0.0669 -0.645583,1.67045 -0.801502,6.68177 -0.155919,5.01131 -0.289605,13.29799 -0.668176,17.28422 -0.109768,1.15581 -0.240507,1.94206 -0.385506,2.47995 a 5.0081843,7.3705357 78.370321 0 0 -4.9852255,-0.23306 5.0081843,7.3705357 78.370321 0 0 -6.20944003,6.39135 5.0081843,7.3705357 78.370321 0 0 8.22895483,3.41943 5.0081843,7.3705357 78.370321 0 0 6.2430307,-5.24051 l 0.02584,0.0196 c 0.133636,-1.24726 0.262364,-2.44966 0.239263,-6.53501 -0.0231,-4.08535 -0.19453,-10.47449 -0.127641,-13.86324 0.06689,-3.38875 0.378759,-3.52259 0.913123,-3.18844 0.534363,0.33416 1.291687,1.13625 2.513541,2.37505 1.221854,1.2388 2.907961,2.91433 3.732072,4.82968 0.824109,1.91536 0.786165,4.07027 0.922941,5.66013 0.136776,1.58985 0.448218,2.61432 1.183391,1.79007 0.735172,-0.82425 1.89325,-3.49633 1.336353,-6.28024 -0.556902,-2.78392 -2.828146,-5.67913 -4.810563,-7.66156 -1.98242,-1.98242 -3.675428,-3.05161 -4.900478,-4.52169 -1.225047,-1.47007 -1.9823,-3.34065 -2.449978,-3.40754 z"
         id="path1119"
         inkscape:connector-curvature="0" />
    </g>
    <g
       transform="translate(0,7.4720797)"
       id="g1469">
      <path
         id="rect1121"
         style="opacity:1;fill:#119c4a;fill-opacity:1;fill-rule:nonzero;stroke:none;stroke-width:0;stroke-linecap:round;stroke-linejoin:round;stroke-miterlimit:4;stroke-dasharray:none;stroke-dashoffset:0;stroke-opacity:1;paint-order:normal"
         d="m 45.423828,2009.4824 c -0.251495,5.12 -0.541791,9.7294 -0.886719,13.3614 -0.414871,4.3684 -0.909003,7.34 -1.457031,9.373 a 18.928571,27.857143 78.370321 0 0 -18.841797,-0.8809 18.928571,27.857143 78.370321 0 0 -23.46874975,24.1563 18.928571,27.857143 78.370321 0 0 31.10156275,12.9238 18.928571,27.857143 78.370321 0 0 23.595703,-19.8066 l 0.09766,0.074 c 0.505081,-4.7141 0.991608,-9.2586 0.904297,-24.6992 -0.02427,-4.293 -0.09429,-9.2937 -0.173828,-14.502 z m 41.248047,0 c 0.576238,5.2145 1.767786,8.3183 4.332031,5.4434 0.956038,-1.0719 2.098158,-2.9852 3.103516,-5.4434 z"
         transform="matrix(0.26458333,0,0,0.26458333,0.02620305,0.35180611)" />
      <path
         style="opacity:1;fill:none;fill-opacity:1;fill-rule:nonzero;stroke:#000000;stroke-width:0.265;stroke-linecap:round;stroke-linejoin:round;stroke-miterlimit:4;stroke-dasharray:none;stroke-dashoffset:0;stroke-opacity:1;paint-order:normal"
         d="m 13.27966,511.59639 c -0.46768,-0.0669 -0.645583,1.67045 -0.801502,6.68177 -0.155919,5.01132 -0.289605,13.298 -0.668176,17.28423 -0.109768,1.15581 -0.240507,1.94205 -0.385506,2.47994 a 5.0081843,7.3705357 78.370321 0 0 -4.9852255,-0.23306 5.0081843,7.3705357 78.370321 0 0 -6.20944006,6.39135 5.0081843,7.3705357 78.370321 0 0 8.22895486,3.41943 5.0081843,7.3705357 78.370321 0 0 6.2430307,-5.24051 l 0.02584,0.0196 c 0.133636,-1.24726 0.262364,-2.44966 0.239263,-6.535 -0.0231,-4.08536 -0.19453,-10.47449 -0.127641,-13.86325 0.06689,-3.38875 0.378759,-3.52259 0.913123,-3.18843 0.534363,0.33415 1.291687,1.13624 2.513541,2.37504 1.221854,1.23881 2.907961,2.91433 3.732072,4.82969 0.824109,1.91536 0.786165,4.07027 0.922941,5.66012 0.136776,1.58986 0.448218,2.61433 1.183391,1.79008 0.735172,-0.82426 1.89325,-3.49633 1.336353,-6.28025 -0.556902,-2.78391 -2.828146,-5.67913 -4.810563,-7.66155 -1.98242,-1.98243 -3.675428,-3.05162 -4.900478,-4.52169 -1.225047,-1.47008 -1.9823,-3.34065 -2.449978,-3.40755 z"
         id="path1123"
         inkscape:connector-curvature="0" />
    </g>
    <g
       transform="translate(0,8.011944)"
       id="g1473">
      <path
         id="rect1125"
         style="opacity:1;fill:#119c4a;fill-opacity:1;fill-rule:nonzero;stroke:none;stroke-width:0;stroke-linecap:round;stroke-linejoin:round;stroke-miterlimit:4;stroke-dasharray:none;stroke-dashoffset:0;stroke-opacity:1;paint-order:normal"
         d="m 45.613281,2143.1309 c -0.293514,6.8376 -0.63813,13.0594 -1.076172,17.6718 -0.414871,4.3685 -0.909003,7.3401 -1.457031,9.3731 a 18.928571,27.857143 78.370321 0 0 -18.841797,-0.8809 18.928571,27.857143 78.370321 0 0 -23.46874975,24.1563 18.928571,27.857143 78.370321 0 0 31.10156275,12.9238 18.928571,27.857143 78.370321 0 0 23.595703,-19.8066 l 0.09766,0.074 c 0.505081,-4.7141 0.991608,-9.2585 0.904297,-24.6992 -0.03086,-5.4578 -0.133825,-12.0644 -0.240234,-18.8125 z m 40.71875,0 c 0.0625,1.0137 0.119745,2.0644 0.199219,2.9882 0.516949,6.0089 1.69405,9.8809 4.472656,6.7657 1.459953,-1.6369 3.353024,-5.2127 4.523438,-9.7539 z"
         transform="matrix(0.26458333,0,0,0.26458333,0.02620305,0.35180611)" />
      <path
         inkscape:connector-curvature="0"
         id="path1127"
         d="m 13.27966,548.09816 c -0.46768,-0.0669 -0.645583,1.67045 -0.801502,6.68177 -0.155919,5.01131 -0.289605,13.29799 -0.668176,17.28422 -0.109768,1.15581 -0.240507,1.94206 -0.385506,2.47995 a 5.0081843,7.3705357 78.370321 0 0 -4.9852255,-0.23306 5.0081843,7.3705357 78.370321 0 0 -6.20944003,6.39135 5.0081843,7.3705357 78.370321 0 0 8.22895483,3.41943 5.0081843,7.3705357 78.370321 0 0 6.2430307,-5.24051 l 0.02584,0.0196 c 0.133636,-1.24726 0.262364,-2.44966 0.239263,-6.53501 -0.0231,-4.08535 -0.19453,-10.47449 -0.127641,-13.86324 0.06689,-3.38875 0.378759,-3.52259 0.913123,-3.18844 0.534363,0.33416 1.291687,1.13625 2.513541,2.37505 1.221854,1.2388 2.907961,2.91433 3.732072,4.82968 0.824109,1.91536 0.786165,4.07027 0.922941,5.66013 0.136776,1.58985 0.448218,2.61432 1.183391,1.79007 0.735172,-0.82425 1.89325,-3.49633 1.336353,-6.28024 -0.556902,-2.78392 -2.828146,-5.67913 -4.810563,-7.66156 -1.98242,-1.98242 -3.675428,-3.05161 -4.900478,-4.52169 -1.225047,-1.47007 -1.9823,-3.34065 -2.449978,-3.40754 z"
         style="opacity:1;fill:none;fill-opacity:1;fill-rule:nonzero;stroke:#000000;stroke-width:0.265;stroke-linecap:round;stroke-linejoin:round;stroke-miterlimit:4;stroke-dasharray:none;stroke-dashoffset:0;stroke-opacity:1;paint-order:normal" />
    </g>
    <g
       transform="translate(0,8.5519507)"
       id="g1477">
      <path
         id="rect1129"
         style="opacity:1;fill:#119c4a;fill-opacity:1;fill-rule:nonzero;stroke:none;stroke-width:0;stroke-linecap:round;stroke-linejoin:round;stroke-miterlimit:4;stroke-dasharray:none;stroke-dashoffset:0;stroke-opacity:1;paint-order:normal"
         d="m 45.794922,2276.7793 c -0.327278,8.5831 -0.727954,16.4032 -1.257813,21.9824 -0.414871,4.3684 -0.909003,7.3401 -1.457031,9.3731 a 18.928571,27.857143 78.370321 0 0 -18.841797,-0.8809 18.928571,27.857143 78.370321 0 0 -23.46874975,24.1563 18.928571,27.857143 78.370321 0 0 31.10156275,12.9238 18.928571,27.857143 78.370321 0 0 23.595703,-19.8067 l 0.09766,0.074 c 0.505081,-4.7141 0.991608,-9.2586 0.904297,-24.6993 -0.03745,-6.6225 -0.178235,-14.8786 -0.306641,-23.123 z m 40.240234,0 c 0.203816,2.6182 0.30716,5.1027 0.496094,7.2988 0.516949,6.0089 1.69405,9.8809 4.472656,6.7657 1.895171,-2.1249 4.529149,-7.5022 5.347656,-14.043 -0.09683,-0.01 -0.184009,-0.021 -0.285156,-0.021 z"
         transform="matrix(0.26458333,0,0,0.26458333,0.02620305,0.35180611)" />
      <path
         style="opacity:1;fill:none;fill-opacity:1;fill-rule:nonzero;stroke:#000000;stroke-width:0.265;stroke-linecap:round;stroke-linejoin:round;stroke-miterlimit:4;stroke-dasharray:none;stroke-dashoffset:0;stroke-opacity:1;paint-order:normal"
         d="m 13.27966,584.59982 c -0.46768,-0.0669 -0.645583,1.67045 -0.801502,6.68176 -0.155919,5.01132 -0.289605,13.298 -0.668176,17.28423 -0.109768,1.15581 -0.240507,1.94206 -0.385506,2.47995 a 5.0081843,7.3705357 78.370321 0 0 -4.9852255,-0.23306 5.0081843,7.3705357 78.370321 0 0 -6.20944006,6.39135 5.0081843,7.3705357 78.370321 0 0 8.22895486,3.41943 5.0081843,7.3705357 78.370321 0 0 6.2430307,-5.24051 l 0.02584,0.0196 c 0.133636,-1.24726 0.262364,-2.44966 0.239263,-6.53501 -0.0231,-4.08535 -0.19453,-10.47449 -0.127641,-13.86324 0.06689,-3.38876 0.378759,-3.5226 0.913123,-3.18844 0.534363,0.33416 1.291687,1.13625 2.513541,2.37505 1.221854,1.2388 2.907961,2.91432 3.732072,4.82968 0.824109,1.91536 0.786165,4.07027 0.922941,5.66012 0.136776,1.58986 0.448218,2.61433 1.183391,1.79008 0.735172,-0.82425 1.89325,-3.49633 1.336353,-6.28024 -0.556902,-2.78392 -2.828146,-5.67913 -4.810563,-7.66156 -1.98242,-1.98243 -3.675428,-3.05161 -4.900478,-4.52169 -1.225047,-1.47007 -1.9823,-3.34065 -2.449978,-3.40754 z"
         id="path1131"
         inkscape:connector-curvature="0" />
    </g>
    <g
       transform="translate(0,9.0918474)"
       id="g1481">
      <path
         id="rect1133"
         style="opacity:1;fill:#119c4a;fill-opacity:1;fill-rule:nonzero;stroke:none;stroke-width:0;stroke-linecap:round;stroke-linejoin:round;stroke-miterlimit:4;stroke-dasharray:none;stroke-dashoffset:0;stroke-opacity:1;paint-order:normal"
         d="m 45.945312,2410.4277 c -0.35367,10.241 -0.79145,19.7988 -1.408203,26.293 -0.414871,4.3684 -0.909003,7.3401 -1.457031,9.3731 a 18.928571,27.857143 78.370321 0 0 -18.841797,-0.8809 18.928571,27.857143 78.370321 0 0 -23.46874975,24.1562 18.928571,27.857143 78.370321 0 0 31.10156275,12.9239 18.928571,27.857143 78.370321 0 0 23.595703,-19.8067 l 0.09766,0.074 c 0.505081,-4.714 0.991608,-9.2585 0.904297,-24.6992 -0.04405,-7.7897 -0.229316,-17.7856 -0.371094,-27.4336 z m 39.628907,0 c 0.567655,4.1826 0.666747,8.2352 0.957031,11.6094 0.516949,6.0089 1.69405,9.8809 4.472656,6.7656 2.296385,-2.5746 5.673102,-9.9227 5.591797,-18.3339 -0.171204,-0.019 -0.341557,-0.041 -0.529297,-0.041 z"
         transform="matrix(0.26458333,0,0,0.26458333,0.02620305,0.35180611)" />
      <path
         inkscape:connector-curvature="0"
         id="path1135"
         d="m 13.27966,621.10159 c -0.46768,-0.0669 -0.645583,1.67045 -0.801502,6.68177 -0.155919,5.01131 -0.289605,13.29799 -0.668176,17.28422 -0.109768,1.15581 -0.240507,1.94206 -0.385506,2.47995 a 5.0081843,7.3705357 78.370321 0 0 -4.9852255,-0.23306 5.0081843,7.3705357 78.370321 0 0 -6.20944003,6.39135 5.0081843,7.3705357 78.370321 0 0 8.22895483,3.41943 5.0081843,7.3705357 78.370321 0 0 6.2430307,-5.24051 l 0.02584,0.0196 c 0.133636,-1.24726 0.262364,-2.44966 0.239263,-6.53501 -0.0231,-4.08535 -0.19453,-10.47449 -0.127641,-13.86324 0.06689,-3.38875 0.378759,-3.52259 0.913123,-3.18844 0.534363,0.33416 1.291687,1.13625 2.513541,2.37505 1.221854,1.2388 2.907961,2.91433 3.732072,4.82968 0.824109,1.91536 0.786165,4.07027 0.922941,5.66013 0.136776,1.58985 0.448218,2.61432 1.183391,1.79007 0.735172,-0.82425 1.89325,-3.49633 1.336353,-6.28024 -0.556902,-2.78392 -2.828146,-5.67913 -4.810563,-7.66156 -1.98242,-1.98242 -3.675428,-3.05161 -4.900478,-4.52169 -1.225047,-1.47007 -1.9823,-3.34065 -2.449978,-3.40754 z"
         style="opacity:1;fill:none;fill-opacity:1;fill-rule:nonzero;stroke:#000000;stroke-width:0.265;stroke-linecap:round;stroke-linejoin:round;stroke-miterlimit:4;stroke-dasharray:none;stroke-dashoffset:0;stroke-opacity:1;paint-order:normal" />
    </g>
    <g
       transform="translate(0,9.610244)"
       id="g1485">
      <path
         id="rect1137"
         style="opacity:1;fill:#119c4a;fill-opacity:1;fill-rule:nonzero;stroke:none;stroke-width:0;stroke-linecap:round;stroke-linejoin:round;stroke-miterlimit:4;stroke-dasharray:none;stroke-dashoffset:0;stroke-opacity:1;paint-order:normal"
         d="m 46.09375,2544.1582 c -0.375938,11.8577 -0.853419,23.1988 -1.556641,30.6035 -0.414871,4.3684 -0.909003,7.3401 -1.457031,9.3731 a 18.928571,27.857143 78.370321 0 0 -18.841797,-0.8809 18.928571,27.857143 78.370321 0 0 -23.46874975,24.1563 18.928571,27.857143 78.370321 0 0 31.10156275,12.9238 18.928571,27.857143 78.370321 0 0 23.595703,-19.8067 l 0.09766,0.074 c 0.505081,-4.7141 0.991608,-9.2586 0.904297,-24.6993 -0.05087,-8.9961 -0.277465,-20.8014 -0.419922,-31.7441 z m 38.716797,0 c 1.315914,5.6516 1.331195,11.3924 1.720703,15.9199 0.516949,6.0089 1.69405,9.8809 4.472656,6.7657 2.684608,-3.01 6.84345,-12.5408 5.22461,-22.6719 -0.05619,0 -0.104602,-0.014 -0.16211,-0.014 z"
         transform="matrix(0.26458333,0,0,0.26458333,0.02620305,0.35180611)" />
      <path
         inkscape:connector-curvature="0"
         id="path1139"
         d="m 13.27966,657.62486 c -0.46768,-0.0669 -0.645583,1.67045 -0.801502,6.68177 -0.155919,5.01132 -0.289605,13.298 -0.668176,17.28423 -0.109768,1.15581 -0.240507,1.94205 -0.385506,2.47994 a 5.0081843,7.3705357 78.370321 0 0 -4.9852255,-0.23306 5.0081843,7.3705357 78.370321 0 0 -6.20944006,6.39135 5.0081843,7.3705357 78.370321 0 0 8.22895486,3.41943 5.0081843,7.3705357 78.370321 0 0 6.2430307,-5.24051 l 0.02584,0.0196 c 0.133636,-1.24726 0.262364,-2.44966 0.239263,-6.535 -0.0231,-4.08536 -0.19453,-10.47449 -0.127641,-13.86325 0.06689,-3.38875 0.378759,-3.52259 0.913123,-3.18843 0.534363,0.33415 1.291687,1.13624 2.513541,2.37504 1.221854,1.23881 2.907961,2.91433 3.732072,4.82969 0.824109,1.91536 0.786165,4.07027 0.922941,5.66012 0.136776,1.58986 0.448218,2.61433 1.183391,1.79008 0.735172,-0.82426 1.89325,-3.49633 1.336353,-6.28025 -0.556902,-2.78391 -2.828146,-5.67913 -4.810563,-7.66155 -1.98242,-1.98243 -3.675428,-3.05162 -4.900478,-4.52169 -1.225047,-1.47008 -1.9823,-3.34065 -2.449978,-3.40755 z"
         style="opacity:1;fill:none;fill-opacity:1;fill-rule:nonzero;stroke:#000000;stroke-width:0.265;stroke-linecap:round;stroke-linejoin:round;stroke-miterlimit:4;stroke-dasharray:none;stroke-dashoffset:0;stroke-opacity:1;paint-order:normal" />
    </g>
    <g
       transform="translate(0,10.150141)"
       id="g1489">
      <path
         id="rect1141"
         style="opacity:1;fill:#119c4a;fill-opacity:1;fill-rule:nonzero;stroke:none;stroke-width:0;stroke-linecap:round;stroke-linejoin:round;stroke-miterlimit:4;stroke-dasharray:none;stroke-dashoffset:0;stroke-opacity:1;paint-order:normal"
         d="m 46.21875,2677.8066 c -0.395382,13.3896 -0.892753,26.6074 -1.681641,34.9141 -0.414871,4.3684 -0.909003,7.3401 -1.457031,9.3731 a 18.928571,27.857143 78.370321 0 0 -18.841797,-0.8809 18.928571,27.857143 78.370321 0 0 -23.46874975,24.1562 18.928571,27.857143 78.370321 0 0 31.10156275,12.9239 18.928571,27.857143 78.370321 0 0 23.595703,-19.8067 l 0.09766,0.074 c 0.505081,-4.714 0.991608,-9.2585 0.904297,-24.6992 -0.05769,-10.2028 -0.343117,-24.0321 -0.46875,-36.0547 z m 37.289062,0 c 2.631956,6.9376 2.533952,14.5408 3.023438,20.2305 0.516949,6.0089 1.69405,9.8809 4.472656,6.7656 2.778603,-3.1152 7.155589,-13.2144 5.050782,-23.7363 -0.216783,-1.0837 -0.51731,-2.1714 -0.863282,-3.2598 z"
         transform="matrix(0.26458333,0,0,0.26458333,0.02620305,0.35180611)" />
      <path
         style="opacity:1;fill:none;fill-opacity:1;fill-rule:nonzero;stroke:#000000;stroke-width:0.265;stroke-linecap:round;stroke-linejoin:round;stroke-miterlimit:4;stroke-dasharray:none;stroke-dashoffset:0;stroke-opacity:1;paint-order:normal"
         d="m 13.27966,694.12663 c -0.46768,-0.0669 -0.645583,1.67045 -0.801502,6.68177 -0.155919,5.01131 -0.289605,13.29799 -0.668176,17.28422 -0.109768,1.15581 -0.240507,1.94206 -0.385506,2.47995 a 5.0081843,7.3705357 78.370321 0 0 -4.9852255,-0.23306 5.0081843,7.3705357 78.370321 0 0 -6.20944003,6.39135 5.0081843,7.3705357 78.370321 0 0 8.22895483,3.41943 5.0081843,7.3705357 78.370321 0 0 6.2430307,-5.24051 l 0.02584,0.0196 c 0.133636,-1.24726 0.262364,-2.44966 0.239263,-6.53501 -0.0231,-4.08535 -0.19453,-10.47449 -0.127641,-13.86324 0.06689,-3.38875 0.378759,-3.52259 0.913123,-3.18844 0.534363,0.33416 1.291687,1.13625 2.513541,2.37505 1.221854,1.2388 2.907961,2.91433 3.732072,4.82968 0.824109,1.91536 0.786165,4.07027 0.922941,5.66013 0.136776,1.58985 0.448218,2.61432 1.183391,1.79007 0.735172,-0.82425 1.89325,-3.49633 1.336353,-6.28024 -0.556902,-2.78392 -2.828146,-5.67913 -4.810563,-7.66156 -1.98242,-1.98242 -3.675428,-3.05161 -4.900478,-4.52169 -1.225047,-1.47007 -1.9823,-3.34065 -2.449978,-3.40754 z"
         id="path1143"
         inkscape:connector-curvature="0" />
    </g>
    <g
       transform="translate(0,10.690047)"
       id="g1493">
      <path
         id="rect1145"
         style="opacity:1;fill:#119c4a;fill-opacity:1;fill-rule:nonzero;stroke:none;stroke-width:0;stroke-linecap:round;stroke-linejoin:round;stroke-miterlimit:4;stroke-dasharray:none;stroke-dashoffset:0;stroke-opacity:1;paint-order:normal"
         d="m 46.339844,2811.4551 c -0.413491,14.8121 -0.928362,30.0177 -1.802735,39.2246 -0.414871,4.3684 -0.909003,7.3401 -1.457031,9.373 a 18.928571,27.857143 78.370321 0 0 -18.841797,-0.8808 18.928571,27.857143 78.370321 0 0 -23.46874975,24.1562 18.928571,27.857143 78.370321 0 0 31.10156275,12.9239 18.928571,27.857143 78.370321 0 0 23.595703,-19.8067 l 0.09766,0.074 c 0.505081,-4.714 0.991608,-9.2585 0.904297,-24.6992 -0.06451,-11.4094 -0.430452,-27.5356 -0.517578,-40.3652 z m 35.115234,0 c 0.587489,1.0293 1.126886,2.077 1.587891,3.1484 3.114742,7.2392 2.971332,15.3837 3.488281,21.3926 0.516949,6.0089 1.69405,9.8809 4.472656,6.7656 2.778603,-3.1153 7.155589,-13.2144 5.050782,-23.7363 -0.503665,-2.5178 -1.387352,-5.0574 -2.529297,-7.5703 z"
         transform="matrix(0.26458333,0,0,0.26458333,0.02620305,0.35180611)" />
      <path
         inkscape:connector-curvature="0"
         id="path1147"
         d="m 13.27966,730.62839 c -0.46768,-0.0669 -0.645583,1.67045 -0.801502,6.68176 -0.155919,5.01132 -0.289605,13.298 -0.668176,17.28423 -0.109768,1.15581 -0.240507,1.94206 -0.385506,2.47995 a 5.0081843,7.3705357 78.370321 0 0 -4.9852255,-0.23306 5.0081843,7.3705357 78.370321 0 0 -6.20944006,6.39135 5.0081843,7.3705357 78.370321 0 0 8.22895486,3.41943 5.0081843,7.3705357 78.370321 0 0 6.2430307,-5.24051 l 0.02584,0.0196 c 0.133636,-1.24726 0.262364,-2.44966 0.239263,-6.53501 -0.0231,-4.08535 -0.19453,-10.47449 -0.127641,-13.86324 0.06689,-3.38876 0.378759,-3.5226 0.913123,-3.18844 0.534363,0.33416 1.291687,1.13625 2.513541,2.37505 1.221854,1.2388 2.907961,2.91432 3.732072,4.82968 0.824109,1.91536 0.786165,4.07027 0.922941,5.66012 0.136776,1.58986 0.448218,2.61433 1.183391,1.79008 0.735172,-0.82425 1.89325,-3.49633 1.336353,-6.28024 -0.556902,-2.78392 -2.828146,-5.67913 -4.810563,-7.66156 -1.98242,-1.98243 -3.675428,-3.05161 -4.900478,-4.52169 -1.225047,-1.47007 -1.9823,-3.34065 -2.449978,-3.40754 z"
         style="opacity:1;fill:none;fill-opacity:1;fill-rule:nonzero;stroke:#000000;stroke-width:0.265;stroke-linecap:round;stroke-linejoin:round;stroke-miterlimit:4;stroke-dasharray:none;stroke-dashoffset:0;stroke-opacity:1;paint-order:normal" />
    </g>
    <g
       transform="translate(0,11.229944)"
       id="g1497">
      <path
         id="rect1149"
         style="opacity:1;fill:#119c4a;fill-opacity:1;fill-rule:nonzero;stroke:none;stroke-width:0;stroke-linecap:round;stroke-linejoin:round;stroke-miterlimit:4;stroke-dasharray:none;stroke-dashoffset:0;stroke-opacity:1;paint-order:normal"
         d="m 46.460938,2945.1035 c -0.431597,16.092 -0.963971,33.4301 -1.923829,43.5371 -0.414871,4.3684 -0.909003,7.3401 -1.457031,9.3731 a 18.928571,27.857143 78.370321 0 0 -18.841797,-0.8809 18.928571,27.857143 78.370321 0 0 -23.46874975,24.1563 18.928571,27.857143 78.370321 0 0 31.10156275,12.9238 18.928571,27.857143 78.370321 0 0 23.595703,-19.8067 l 0.09766,0.074 c 0.505081,-4.7141 0.991608,-9.2586 0.904297,-24.6993 -0.07207,-12.7465 -0.519149,-31.3416 -0.533203,-44.6777 z m 32.152343,0 c 1.74245,2.3466 3.30277,4.8418 4.429688,7.461 3.114742,7.2391 2.971332,15.3836 3.488281,21.3925 0.516949,6.0089 1.69405,9.8809 4.472656,6.7657 2.778603,-3.1153 7.155589,-13.2145 5.050782,-23.7364 -0.79426,-3.9704 -2.513387,-8.0005 -4.746094,-11.8828 z"
         transform="matrix(0.26458333,0,0,0.26458333,0.02620305,0.35180611)" />
      <path
         style="opacity:1;fill:none;fill-opacity:1;fill-rule:nonzero;stroke:#000000;stroke-width:0.265;stroke-linecap:round;stroke-linejoin:round;stroke-miterlimit:4;stroke-dasharray:none;stroke-dashoffset:0;stroke-opacity:1;paint-order:normal"
         d="m 13.27966,767.13016 c -0.46768,-0.0669 -0.645583,1.67045 -0.801502,6.68177 -0.155919,5.01131 -0.289605,13.29799 -0.668176,17.28422 -0.109768,1.15581 -0.240507,1.94206 -0.385506,2.47995 a 5.0081843,7.3705357 78.370321 0 0 -4.9852255,-0.23306 5.0081843,7.3705357 78.370321 0 0 -6.20944003,6.39135 5.0081843,7.3705357 78.370321 0 0 8.22895483,3.41943 5.0081843,7.3705357 78.370321 0 0 6.2430307,-5.24051 l 0.02584,0.0196 c 0.133636,-1.24726 0.262364,-2.44966 0.239263,-6.53501 -0.0231,-4.08535 -0.19453,-10.47449 -0.127641,-13.86324 0.06689,-3.38875 0.378759,-3.52259 0.913123,-3.18844 0.534363,0.33416 1.291687,1.13625 2.513541,2.37505 1.221854,1.2388 2.907961,2.91433 3.732072,4.82968 0.824109,1.91536 0.786165,4.07027 0.922941,5.66013 0.136776,1.58985 0.448218,2.61432 1.183391,1.79007 0.735172,-0.82425 1.89325,-3.49633 1.336353,-6.28024 -0.556902,-2.78392 -2.828146,-5.67913 -4.810563,-7.66156 -1.98242,-1.98242 -3.675428,-3.05161 -4.900478,-4.52169 -1.225047,-1.47007 -1.9823,-3.34065 -2.449978,-3.40754 z"
         id="path1151"
         inkscape:connector-curvature="0" />
    </g>
    <g
       transform="translate(0,11.748341)"
       id="g1501">
      <path
         id="rect1153"
         style="opacity:1;fill:#119c4a;fill-opacity:1;fill-rule:nonzero;stroke:none;stroke-width:0;stroke-linecap:round;stroke-linejoin:round;stroke-miterlimit:4;stroke-dasharray:none;stroke-dashoffset:0;stroke-opacity:1;paint-order:normal"
         d="m 46.582031,3078.834 c -0.450993,17.1925 -0.999579,36.8405 -2.044922,47.8476 -0.414871,4.3685 -0.909003,7.3401 -1.457031,9.3731 a 18.928571,27.857143 78.370321 0 0 -18.841797,-0.8809 18.928571,27.857143 78.370321 0 0 -23.46874975,24.1563 18.928571,27.857143 78.370321 0 0 31.10156275,12.9238 18.928571,27.857143 78.370321 0 0 23.595703,-19.8066 l 0.09766,0.072 c 0.505081,-4.714 0.991608,-9.2585 0.904297,-24.6992 -0.08028,-14.1981 -0.625437,-35.6502 -0.517578,-48.9863 z m 28.511719,0 c 3.097977,3.5039 6.099426,7.4703 7.949219,11.7695 3.114742,7.2392 2.971332,15.3837 3.488281,21.3926 0.516949,6.0089 1.69405,9.8809 4.472656,6.7656 2.778603,-3.1153 7.155589,-13.2144 5.050782,-23.7363 -1.09346,-5.4661 -3.941393,-11.0409 -7.470704,-16.1914 z"
         transform="matrix(0.26458333,0,0,0.26458333,0.02620305,0.35180611)" />
      <path
         style="opacity:1;fill:none;fill-opacity:1;fill-rule:nonzero;stroke:#000000;stroke-width:0.265;stroke-linecap:round;stroke-linejoin:round;stroke-miterlimit:4;stroke-dasharray:none;stroke-dashoffset:0;stroke-opacity:1;paint-order:normal"
         d="m 13.27966,803.65343 c -0.46768,-0.0669 -0.645583,1.67045 -0.801502,6.68177 -0.155919,5.01132 -0.289605,13.298 -0.668176,17.28423 -0.109768,1.15581 -0.240507,1.94205 -0.385506,2.47994 a 5.0081843,7.3705357 78.370321 0 0 -4.9852255,-0.23306 5.0081843,7.3705357 78.370321 0 0 -6.20944006,6.39135 5.0081843,7.3705357 78.370321 0 0 8.22895486,3.41943 5.0081843,7.3705357 78.370321 0 0 6.2430307,-5.24051 l 0.02584,0.0196 c 0.133636,-1.24726 0.262364,-2.44966 0.239263,-6.535 -0.0231,-4.08536 -0.19453,-10.47449 -0.127641,-13.86325 0.06689,-3.38875 0.378759,-3.52259 0.913123,-3.18843 0.534363,0.33415 1.291687,1.13624 2.513541,2.37504 1.221854,1.23881 2.907961,2.91433 3.732072,4.82969 0.824109,1.91536 0.786165,4.07027 0.922941,5.66012 0.136776,1.58986 0.448218,2.61433 1.183391,1.79008 0.735172,-0.82426 1.89325,-3.49633 1.336353,-6.28025 -0.556902,-2.78391 -2.828146,-5.67913 -4.810563,-7.66155 -1.98242,-1.98243 -3.675428,-3.05162 -4.900478,-4.52169 -1.225047,-1.47008 -1.9823,-3.34065 -2.449978,-3.40755 z"
         id="path1155"
         inkscape:connector-curvature="0" />
    </g>
    <g
       transform="translate(0,12.288237)"
       id="g1505">
      <path
         id="rect1157"
         style="opacity:1;fill:#119c4a;fill-opacity:1;fill-rule:nonzero;stroke:none;stroke-width:0;stroke-linecap:round;stroke-linejoin:round;stroke-miterlimit:4;stroke-dasharray:none;stroke-dashoffset:0;stroke-opacity:1;paint-order:normal"
         d="m 46.701172,3212.4824 c -0.474935,18.1392 -1.026203,40.1769 -2.164063,52.1582 -0.414871,4.3684 -0.909003,7.3401 -1.457031,9.3731 a 18.928571,27.857143 78.370321 0 0 -18.841797,-0.8809 18.928571,27.857143 78.370321 0 0 -23.46874975,24.1563 18.928571,27.857143 78.370321 0 0 31.10156275,12.9238 18.928571,27.857143 78.370321 0 0 23.595703,-19.8067 l 0.09766,0.074 c 0.505081,-4.7141 0.991608,-9.2586 0.904297,-24.6993 -0.08731,-15.4406 -0.735231,-39.5886 -0.482422,-52.3964 0.0067,-0.3401 0.02128,-0.5795 0.0293,-0.9024 z m 24.355469,0 c 4.301211,4.4051 9.315703,9.8751 11.986328,16.0821 3.114742,7.2391 2.971332,15.3836 3.488281,21.3925 0.516949,6.0089 1.69405,9.8809 4.472656,6.7657 2.778603,-3.1153 7.155589,-13.2145 5.050782,-23.7364 -1.406985,-7.0334 -5.712405,-14.2506 -10.648438,-20.5039 z"
         transform="matrix(0.26458333,0,0,0.26458333,0.02620305,0.35180611)" />
      <path
         inkscape:connector-curvature="0"
         id="path1159"
         d="m 13.27966,840.1552 c -0.46768,-0.0669 -0.645583,1.67045 -0.801502,6.68177 -0.155919,5.01131 -0.289605,13.29799 -0.668176,17.28422 -0.109768,1.15581 -0.240507,1.94206 -0.385506,2.47995 a 5.0081843,7.3705357 78.370321 0 0 -4.9852255,-0.23306 5.0081843,7.3705357 78.370321 0 0 -6.20944003,6.39135 5.0081843,7.3705357 78.370321 0 0 8.22895483,3.41943 5.0081843,7.3705357 78.370321 0 0 6.2430307,-5.24051 l 0.02584,0.0196 c 0.133636,-1.24726 0.262364,-2.44966 0.239263,-6.53501 -0.0231,-4.08535 -0.19453,-10.47449 -0.127641,-13.86324 0.06689,-3.38875 0.378759,-3.52259 0.913123,-3.18844 0.534363,0.33416 1.291687,1.13625 2.513541,2.37505 1.221854,1.2388 2.907961,2.91433 3.732072,4.82968 0.824109,1.91536 0.786165,4.07027 0.922941,5.66013 0.136776,1.58985 0.448218,2.61432 1.183391,1.79007 0.735172,-0.82425 1.89325,-3.49633 1.336353,-6.28024 -0.556902,-2.78392 -2.828146,-5.67913 -4.810563,-7.66156 -1.98242,-1.98242 -3.675428,-3.05161 -4.900478,-4.52169 -1.225047,-1.47007 -1.9823,-3.34065 -2.449978,-3.40754 z"
         style="opacity:1;fill:none;fill-opacity:1;fill-rule:nonzero;stroke:#000000;stroke-width:0.265;stroke-linecap:round;stroke-linejoin:round;stroke-miterlimit:4;stroke-dasharray:none;stroke-dashoffset:0;stroke-opacity:1;paint-order:normal" />
    </g>
    <g
       transform="translate(0,12.828094)"
       id="g1509">
      <path
         id="rect1161"
         style="opacity:1;fill:#119c4a;fill-opacity:1;fill-rule:nonzero;stroke:none;stroke-width:0;stroke-linecap:round;stroke-linejoin:round;stroke-miterlimit:4;stroke-dasharray:none;stroke-dashoffset:0;stroke-opacity:1;paint-order:normal"
         d="m 46.820312,3346.1309 c -0.504701,18.8039 -1.049418,43.4774 -2.283203,56.4687 -0.414871,4.3684 -0.909003,7.3401 -1.457031,9.3731 a 18.928571,27.857143 78.370321 0 0 -18.841797,-0.8809 18.928571,27.857143 78.370321 0 0 -23.46874975,24.1562 18.928571,27.857143 78.370321 0 0 31.10156275,12.9239 18.928571,27.857143 78.370321 0 0 23.595703,-19.8067 l 0.09766,0.074 c 0.505081,-4.7141 0.991608,-9.2586 0.904297,-24.6993 -0.08731,-15.4407 -0.735231,-39.5886 -0.482422,-52.3964 0.0411,-2.0822 0.115405,-3.7358 0.205078,-5.2129 z m 20.013672,0 c 0.677624,0.6893 1.332187,1.3566 2.103516,2.1386 4.618031,4.6821 10.990719,11.0148 14.105469,18.2539 3.114742,7.2392 2.971332,15.3837 3.488281,21.3926 0.516949,6.0089 1.69405,9.8809 4.472656,6.7656 2.778603,-3.1152 7.155589,-13.2144 5.050782,-23.7363 -1.746103,-8.7286 -7.954989,-17.7165 -14.296876,-24.8144 z"
         transform="matrix(0.26458333,0,0,0.26458333,0.02620305,0.35180611)" />
      <path
         inkscape:connector-curvature="0"
         id="path1163"
         d="m 13.27966,876.65701 c -0.46768,-0.0669 -0.645583,1.67045 -0.801502,6.68176 -0.155919,5.01132 -0.289605,13.298 -0.668176,17.28423 -0.109768,1.15581 -0.240507,1.94206 -0.385506,2.47995 a 5.0081843,7.3705357 78.370321 0 0 -4.9852255,-0.23306 5.0081843,7.3705357 78.370321 0 0 -6.20944006,6.39135 5.0081843,7.3705357 78.370321 0 0 8.22895486,3.41943 5.0081843,7.3705357 78.370321 0 0 6.2430307,-5.24051 l 0.02584,0.0196 c 0.133636,-1.24726 0.262364,-2.44966 0.239263,-6.53501 -0.0231,-4.08535 -0.19453,-10.47449 -0.127641,-13.86324 0.06689,-3.38876 0.378759,-3.5226 0.913123,-3.18844 0.534363,0.33416 1.291687,1.13625 2.513541,2.37505 1.221854,1.2388 2.907961,2.91432 3.732072,4.82968 0.824109,1.91536 0.786165,4.07027 0.922941,5.66012 0.136776,1.58986 0.448218,2.61433 1.183391,1.79008 0.735172,-0.82425 1.89325,-3.49633 1.336353,-6.28024 -0.556902,-2.78392 -2.828146,-5.67913 -4.810563,-7.66156 -1.98242,-1.98243 -3.675428,-3.05161 -4.900478,-4.52169 -1.225047,-1.47007 -1.9823,-3.34065 -2.449978,-3.40754 z"
         style="opacity:1;fill:none;fill-opacity:1;fill-rule:nonzero;stroke:#000000;stroke-width:0.265;stroke-linecap:round;stroke-linejoin:round;stroke-miterlimit:4;stroke-dasharray:none;stroke-dashoffset:0;stroke-opacity:1;paint-order:normal" />
    </g>
    <g
       transform="translate(0,13.367991)"
       id="g1513">
      <path
         id="rect1165"
         style="opacity:1;fill:#119c4a;fill-opacity:1;fill-rule:nonzero;stroke:none;stroke-width:0;stroke-linecap:round;stroke-linejoin:round;stroke-miterlimit:4;stroke-dasharray:none;stroke-dashoffset:0;stroke-opacity:1;paint-order:normal"
         d="m 46.9375,3479.7793 c -0.54129,19.095 -1.070717,46.7783 -2.400391,60.7793 -0.414871,4.3684 -0.909003,7.3401 -1.457031,9.373 a 18.928571,27.857143 78.370321 0 0 -18.841797,-0.8808 18.928571,27.857143 78.370321 0 0 -23.46874975,24.1562 18.928571,27.857143 78.370321 0 0 31.10156275,12.9239 18.928571,27.857143 78.370321 0 0 23.595703,-19.8067 l 0.09766,0.074 c 0.505081,-4.714 0.991608,-9.2585 0.904297,-24.6992 -0.08731,-15.4407 -0.735231,-39.5886 -0.482422,-52.3965 0.09139,-4.6297 0.30738,-7.611 0.636719,-9.5234 z m 15.539062,0 c 1.687135,1.5878 3.745001,3.6956 6.460938,6.4492 4.618031,4.6821 10.990719,11.0148 14.105469,18.2539 3.114742,7.2392 2.971332,15.3837 3.488281,21.3926 0.516949,6.0089 1.69405,9.8809 4.472656,6.7656 2.778603,-3.1153 7.155589,-13.2144 5.050782,-23.7363 -2.104827,-10.5219 -10.689041,-21.4644 -18.181641,-28.957 -0.05913,-0.059 -0.114839,-0.1093 -0.173828,-0.168 z"
         transform="matrix(0.26458333,0,0,0.26458333,0.02620305,0.35180611)" />
      <path
         style="opacity:1;fill:none;fill-opacity:1;fill-rule:nonzero;stroke:#000000;stroke-width:0.265;stroke-linecap:round;stroke-linejoin:round;stroke-miterlimit:4;stroke-dasharray:none;stroke-dashoffset:0;stroke-opacity:1;paint-order:normal"
         d="m 13.27966,913.15878 c -0.46768,-0.0669 -0.645583,1.67045 -0.801502,6.68177 -0.155919,5.01131 -0.289605,13.29799 -0.668176,17.28422 -0.109768,1.15581 -0.240507,1.94206 -0.385506,2.47995 a 5.0081843,7.3705357 78.370321 0 0 -4.9852255,-0.23306 5.0081843,7.3705357 78.370321 0 0 -6.20944003,6.39135 5.0081843,7.3705357 78.370321 0 0 8.22895483,3.41938 5.0081843,7.3705357 78.370321 0 0 6.2430307,-5.24046 l 0.02584,0.0196 c 0.133636,-1.24726 0.262364,-2.44966 0.239263,-6.53501 -0.0231,-4.08535 -0.19453,-10.47449 -0.127641,-13.86324 0.06689,-3.38875 0.378759,-3.52259 0.913123,-3.18844 0.534363,0.33416 1.291687,1.13625 2.513541,2.37505 1.221854,1.2388 2.907961,2.91433 3.732072,4.82968 0.824109,1.91536 0.786165,4.07027 0.922941,5.66013 0.136776,1.58985 0.448218,2.61432 1.183391,1.79007 0.735172,-0.82425 1.89325,-3.49633 1.336353,-6.28024 -0.556902,-2.78392 -2.828146,-5.67913 -4.810563,-7.66156 -1.98242,-1.98242 -3.675428,-3.05161 -4.900478,-4.52169 -1.225047,-1.47007 -1.9823,-3.34065 -2.449978,-3.40754 z"
         id="path1167"
         inkscape:connector-curvature="0" />
    </g>
    <g
       transform="translate(0,13.886287)"
       id="g1517">
      <path
         id="rect1169"
         style="opacity:1;fill:#119c4a;fill-opacity:1;fill-rule:nonzero;stroke:none;stroke-width:0;stroke-linecap:round;stroke-linejoin:round;stroke-miterlimit:4;stroke-dasharray:none;stroke-dashoffset:0;stroke-opacity:1;paint-order:normal"
         d="m 47.056641,3613.5098 c -0.586534,18.9609 -1.093969,50.0789 -2.519532,65.0898 -0.414871,4.3684 -0.909003,7.3404 -1.457031,9.3731 a 18.928571,27.857143 78.370321 0 0 -18.841797,-0.8809 18.928571,27.857143 78.370321 0 0 -23.46874975,24.1562 18.928571,27.857143 78.370321 0 0 31.10156275,12.9239 18.928571,27.857143 78.370321 0 0 23.595703,-19.8067 l 0.09766,0.076 c 0.505081,-4.7142 0.991608,-9.2584 0.904297,-24.6992 -0.08731,-15.4408 -0.735231,-39.5884 -0.482422,-52.3965 0.252813,-12.8079 1.431529,-13.3139 3.451172,-12.0508 2.01964,1.2628 4.881969,4.2945 9.5,8.9766 4.618031,4.6819 10.990719,11.015 14.105469,18.2539 3.114742,7.2392 2.971332,15.3835 3.488281,21.3926 0.516949,6.0089 1.69405,9.8807 4.472656,6.7656 2.778603,-3.1155 7.155589,-13.2145 5.050782,-23.7363 -2.104827,-10.5217 -10.689041,-21.4645 -18.181641,-28.9571 -1.649899,-1.6498 -3.236824,-3.1122 -4.773438,-4.4804 z"
         transform="matrix(0.26458333,0,0,0.26458333,0.02620305,0.35180611)" />
      <path
         style="opacity:1;fill:none;fill-opacity:1;fill-rule:nonzero;stroke:#000000;stroke-width:0.265;stroke-linecap:round;stroke-linejoin:round;stroke-miterlimit:4;stroke-dasharray:none;stroke-dashoffset:0;stroke-opacity:1;paint-order:normal"
         d="m 13.27966,949.68209 c -0.46768,-0.067 -0.645583,1.6704 -0.801502,6.68177 -0.155919,5.01127 -0.289605,13.29794 -0.668176,17.28421 -0.109768,1.1558 -0.240507,1.94207 -0.385506,2.47987 a 5.0081843,7.3705357 78.370321 0 0 -4.9852255,-0.233 5.0081843,7.3705357 78.370321 0 0 -6.20944006,6.39137 5.0081843,7.3705357 78.370321 0 0 8.22895486,3.4194 5.0081843,7.3705357 78.370321 0 0 6.2430307,-5.24047 l 0.02584,0.02 c 0.133636,-1.2473 0.262364,-2.4497 0.239263,-6.53507 -0.0231,-4.08537 -0.19453,-10.47444 -0.127641,-13.86324 0.06689,-3.38877 0.378759,-3.52257 0.913123,-3.18837 0.534363,0.3341 1.291687,1.1362 2.513541,2.375 1.221854,1.23877 2.907961,2.91437 3.732072,4.82967 0.824109,1.91537 0.786165,4.07027 0.922941,5.66017 0.136776,1.58987 0.448218,2.61427 1.183391,1.79007 0.735172,-0.8243 1.89325,-3.49637 1.336353,-6.28027 -0.556902,-2.78387 -2.828146,-5.67914 -4.810563,-7.66154 -1.98242,-1.9824 -3.675428,-3.0516 -4.900478,-4.52167 -1.225047,-1.4701 -1.9823,-3.3407 -2.449978,-3.4076 z"
         id="path1171"
         inkscape:connector-curvature="0" />
    </g>
    <g
       transform="translate(0,14.426199)"
       id="g1521">
      <path
         id="rect1173"
         style="opacity:1;fill:#119c4a;fill-opacity:1;fill-rule:nonzero;stroke:none;stroke-width:0;stroke-linecap:round;stroke-linejoin:round;stroke-miterlimit:4;stroke-dasharray:none;stroke-dashoffset:0;stroke-opacity:1;paint-order:normal"
         d="m 47.203125,3747.1582 c -0.04743,1.3287 -0.09469,2.5978 -0.140625,4.0742 -0.5893,18.9407 -1.094571,50.2622 -2.525391,65.3281 -0.414871,4.3688 -0.909003,7.3401 -1.457031,9.3731 a 18.928571,27.857143 78.370321 0 0 -18.841797,-0.8809 18.928571,27.857143 78.370321 0 0 -23.46874975,24.1563 18.928571,27.857143 78.370321 0 0 31.10156275,12.9238 18.928571,27.857143 78.370321 0 0 23.595703,-19.8066 l 0.09766,0.074 c 0.505081,-4.7138 0.991608,-9.2583 0.904297,-24.6992 -0.08731,-15.4409 -0.735231,-39.5888 -0.482422,-52.3965 0.252813,-12.8081 1.431529,-13.3135 3.451172,-12.0508 2.01964,1.2631 4.881969,4.2945 9.5,8.9766 4.618031,4.682 10.990719,11.0145 14.105469,18.2539 3.114742,7.2393 2.971332,15.3839 3.488281,21.3926 0.516949,6.009 1.69405,9.881 4.472656,6.7656 2.778603,-3.1151 7.155589,-13.2141 5.050782,-23.7364 -2.104827,-10.5219 -10.689041,-21.4644 -18.181641,-28.957 -3.533253,-3.5334 -6.797431,-6.2719 -9.773438,-8.791 z"
         transform="matrix(0.26458333,0,0,0.26458333,0.02620305,0.35180611)" />
      <path
         inkscape:connector-curvature="0"
         id="path1175"
         d="m 13.27966,986.18378 c -0.46768,-0.067 -0.645583,1.6705 -0.801502,6.6818 -0.155919,5.0114 -0.289605,13.29812 -0.668176,17.28432 -0.109768,1.1559 -0.240507,1.9421 -0.385506,2.48 a 5.0081843,7.3705357 78.370321 0 0 -4.9852255,-0.2331 5.0081843,7.3705357 78.370321 0 0 -6.20944003,6.3914 5.0081843,7.3705357 78.370321 0 0 8.22895483,3.4195 5.0081843,7.3705357 78.370321 0 0 6.2430307,-5.2406 l 0.02584,0.02 c 0.133636,-1.2472 0.262364,-2.4496 0.239263,-6.535 -0.0231,-4.0854 -0.19453,-10.47462 -0.127641,-13.86332 0.06689,-3.3888 0.378759,-3.5226 0.913123,-3.1885 0.534363,0.3342 1.291687,1.1363 2.513541,2.3751 1.221854,1.2388 2.907961,2.9143 3.732072,4.82972 0.824109,1.9154 0.786165,4.0703 0.922941,5.6601 0.136776,1.5899 0.448218,2.6144 1.183391,1.7901 0.735172,-0.8242 1.89325,-3.4963 1.336353,-6.2803 -0.556902,-2.78392 -2.828146,-5.67912 -4.810563,-7.66152 -1.98242,-1.9825 -3.675428,-3.0517 -4.900478,-4.5218 -1.225047,-1.47 -1.9823,-3.3406 -2.449978,-3.4075 z"
         style="opacity:1;fill:none;fill-opacity:1;fill-rule:nonzero;stroke:#000000;stroke-width:0.265;stroke-linecap:round;stroke-linejoin:round;stroke-miterlimit:4;stroke-dasharray:none;stroke-dashoffset:0;stroke-opacity:1;paint-order:normal" />
    </g>
    <g
       transform="translate(0,14.966104)"
       id="g1525">
      <path
         id="rect1177"
         style="opacity:1;fill:#119c4a;fill-opacity:1;fill-rule:nonzero;stroke:none;stroke-width:0;stroke-linecap:round;stroke-linejoin:round;stroke-miterlimit:4;stroke-dasharray:none;stroke-dashoffset:0;stroke-opacity:1;paint-order:normal"
         d="m 47.373047,3880.8066 c -0.108196,2.5054 -0.211784,5.2125 -0.310547,8.3868 -0.5893,18.9403 -1.094571,50.2602 -2.525391,65.3261 -0.414871,4.3684 -0.909003,7.3401 -1.457031,9.3731 a 18.928571,27.857143 78.370321 0 0 -18.841797,-0.8809 18.928571,27.857143 78.370321 0 0 -23.46874975,24.1563 18.928571,27.857143 78.370321 0 0 31.10156275,12.9238 18.928571,27.857143 78.370321 0 0 23.595703,-19.8066 l 0.09766,0.076 c 0.505081,-4.7142 0.991608,-9.2587 0.904297,-24.6992 -0.08731,-15.4409 -0.735231,-39.5884 -0.482422,-52.3965 0.252813,-12.8077 1.431529,-13.3139 3.451172,-12.0508 2.01964,1.2632 4.881969,4.2945 9.5,8.9766 4.618031,4.6821 10.990719,11.0146 14.105469,18.2539 3.114742,7.2389 2.971332,15.3839 3.488281,21.3926 0.516949,6.0091 1.69405,9.8811 4.472656,6.7656 2.778603,-3.1154 7.155589,-13.2141 5.050782,-23.7363 -2.104827,-10.5218 -10.689041,-21.4641 -18.181641,-28.957 -5.607241,-5.6072 -10.601994,-9.2807 -14.701172,-13.1036 z"
         transform="matrix(0.26458333,0,0,0.26458333,0.02620305,0.35180611)" />
      <path
         style="opacity:1;fill:none;fill-opacity:1;fill-rule:nonzero;stroke:#000000;stroke-width:0.265;stroke-linecap:round;stroke-linejoin:round;stroke-miterlimit:4;stroke-dasharray:none;stroke-dashoffset:0;stroke-opacity:1;paint-order:normal"
         d="m 13.27966,1022.6858 c -0.46768,-0.067 -0.645583,1.6705 -0.801502,6.6818 -0.155919,5.0113 -0.289605,13.2981 -0.668176,17.2843 -0.109768,1.1558 -0.240507,1.9421 -0.385506,2.48 a 5.0081843,7.3705357 78.370321 0 0 -4.9852255,-0.2331 5.0081843,7.3705357 78.370321 0 0 -6.20944006,6.3914 5.0081843,7.3705357 78.370321 0 0 8.22895486,3.4194 5.0081843,7.3705357 78.370321 0 0 6.2430307,-5.2405 l 0.02584,0.02 c 0.133636,-1.2473 0.262364,-2.4497 0.239263,-6.535 -0.0231,-4.0854 -0.19453,-10.4746 -0.127641,-13.8634 0.06689,-3.3887 0.378759,-3.5226 0.913123,-3.1884 0.534363,0.3342 1.291687,1.1362 2.513541,2.375 1.221854,1.2388 2.907961,2.9144 3.732072,4.8298 0.824109,1.9153 0.786165,4.0703 0.922941,5.6601 0.136776,1.5899 0.448218,2.6144 1.183391,1.7901 0.735172,-0.8243 1.89325,-3.4963 1.336353,-6.2803 -0.556902,-2.7839 -2.828146,-5.6791 -4.810563,-7.6616 -1.98242,-1.9824 -3.675428,-3.0516 -4.900478,-4.5217 -1.225047,-1.4701 -1.9823,-3.3407 -2.449978,-3.4076 z"
         id="path1179"
         inkscape:connector-curvature="0" />
    </g>
    <g
       transform="translate(0,15.5059)"
       id="g1529">
      <path
         id="rect1181"
         style="opacity:1;fill:#119c4a;fill-opacity:1;fill-rule:nonzero;stroke:none;stroke-width:0;stroke-linecap:round;stroke-linejoin:round;stroke-miterlimit:4;stroke-dasharray:none;stroke-dashoffset:0;stroke-opacity:1;paint-order:normal"
         d="m 47.582031,4014.4531 c -0.191741,3.4237 -0.360031,7.5747 -0.519531,12.7012 -0.5893,18.9403 -1.094571,50.2598 -2.525391,65.3262 -0.414871,4.3683 -0.909003,7.3404 -1.457031,9.373 a 18.928571,27.857143 78.370321 0 0 -18.841797,-0.8808 18.928571,27.857143 78.370321 0 0 -23.46874975,24.1562 18.928571,27.857143 78.370321 0 0 31.10156275,12.9238 18.928571,27.857143 78.370321 0 0 23.595703,-19.8066 l 0.09766,0.076 c 0.505081,-4.7142 0.991608,-9.2584 0.904297,-24.6993 -0.08731,-15.4405 -0.735231,-39.5903 -0.482422,-52.3984 0.252813,-12.8077 1.431529,-13.3139 3.451172,-12.0508 2.01964,1.2628 4.881969,4.2945 9.5,8.9766 4.618031,4.6821 10.990719,11.015 14.105469,18.2539 3.114742,7.2393 2.971332,15.3855 3.488281,21.3945 0.516949,6.0087 1.69405,9.8807 4.472656,6.7657 2.778603,-3.1155 7.155589,-13.2145 5.050782,-23.7364 -2.104827,-10.5218 -10.689041,-21.4664 -18.181641,-28.959 -7.492611,-7.4925 -13.891374,-11.5335 -18.521485,-17.0898 -0.08827,-0.1059 -0.16496,-0.2192 -0.251953,-0.3262 z"
         transform="matrix(0.26458333,0,0,0.26458333,0.02620305,0.35180611)" />
      <path
         inkscape:connector-curvature="0"
         id="path1183"
         d="m 13.27966,1059.1878 c -0.46768,-0.067 -0.645583,1.6704 -0.801502,6.6818 -0.155919,5.0113 -0.289605,13.298 -0.668176,17.2843 -0.109768,1.1558 -0.240507,1.9421 -0.385506,2.4799 a 5.0081843,7.3705357 78.370321 0 0 -4.9852255,-0.233 5.0081843,7.3705357 78.370321 0 0 -6.20944003,6.3914 5.0081843,7.3705357 78.370321 0 0 8.22895483,3.4194 5.0081843,7.3705357 78.370321 0 0 6.2430307,-5.2405 l 0.02584,0.02 c 0.133636,-1.2473 0.262364,-2.4497 0.239263,-6.5351 -0.0231,-4.0853 -0.19453,-10.4745 -0.127641,-13.8633 0.06689,-3.3887 0.378759,-3.5226 0.913123,-3.1884 0.534363,0.3341 1.291687,1.1362 2.513541,2.375 1.221854,1.2388 2.907961,2.9144 3.732072,4.8297 0.824109,1.9154 0.786165,4.0703 0.922941,5.6602 0.136776,1.5898 0.448218,2.6143 1.183391,1.7901 0.735172,-0.8243 1.89325,-3.4964 1.336353,-6.2803 -0.556902,-2.7839 -2.828146,-5.6792 -4.810563,-7.6616 -1.98242,-1.9824 -3.675428,-3.0516 -4.900478,-4.5217 -1.225047,-1.4701 -1.9823,-3.3407 -2.449978,-3.4076 z"
         style="opacity:1;fill:none;fill-opacity:1;fill-rule:nonzero;stroke:#000000;stroke-width:0.265;stroke-linecap:round;stroke-linejoin:round;stroke-miterlimit:4;stroke-dasharray:none;stroke-dashoffset:0;stroke-opacity:1;paint-order:normal" />
    </g>
    <g
       transform="translate(0,16.02436)"
       id="g1533">
      <path
         id="rect1185"
         style="opacity:1;fill:#119c4a;fill-opacity:1;fill-rule:nonzero;stroke:none;stroke-width:0;stroke-linecap:round;stroke-linejoin:round;stroke-miterlimit:4;stroke-dasharray:none;stroke-dashoffset:0;stroke-opacity:1;paint-order:normal"
         d="m 47.873047,4148.1816 c -0.32464,3.9684 -0.576022,9.476 -0.810547,17.0137 -0.5893,18.9407 -1.094571,50.2599 -2.525391,65.3262 -0.414871,4.3684 -0.909003,7.34 -1.457031,9.373 a 18.928571,27.857143 78.370321 0 0 -18.841797,-0.8808 18.928571,27.857143 78.370321 0 0 -23.46874975,24.1562 18.928571,27.857143 78.370321 0 0 31.10156275,12.9239 18.928571,27.857143 78.370321 0 0 23.595703,-19.8067 l 0.09766,0.076 c 0.505081,-4.7142 0.991608,-9.2584 0.904297,-24.6992 -0.08731,-15.4409 -0.735231,-39.5885 -0.482422,-52.3965 0.252813,-12.8081 1.431529,-13.3139 3.451172,-12.0508 2.01964,1.2627 4.881969,4.2945 9.5,8.9766 4.618031,4.682 10.990719,11.0149 14.105469,18.2539 3.114742,7.2393 2.971332,15.3835 3.488281,21.3925 0.516949,6.0087 1.69405,9.8808 4.472656,6.7657 2.778603,-3.1155 7.155589,-13.2145 5.050782,-23.7364 -2.104827,-10.5218 -10.689041,-21.4645 -18.181641,-28.957 -7.492611,-7.4929 -13.891374,-11.5339 -18.521485,-17.0898 -1.244065,-1.493 -2.35167,-3.0908 -3.353515,-4.6407 z"
         transform="matrix(0.26458333,0,0,0.26458333,0.02620305,0.35180611)" />
      <path
         inkscape:connector-curvature="0"
         id="path1187"
         d="m 13.27966,1095.7112 c -0.46768,-0.067 -0.645583,1.6705 -0.801502,6.6818 -0.155919,5.0114 -0.289605,13.2981 -0.668176,17.2844 -0.109768,1.1558 -0.240507,1.942 -0.385506,2.4799 a 5.0081843,7.3705357 78.370321 0 0 -4.9852255,-0.233 5.0081843,7.3705357 78.370321 0 0 -6.20944006,6.3913 5.0081843,7.3705357 78.370321 0 0 8.22895486,3.4195 5.0081843,7.3705357 78.370321 0 0 6.2430307,-5.2405 l 0.02584,0.02 c 0.133636,-1.2473 0.262364,-2.4497 0.239263,-6.5351 -0.0231,-4.0854 -0.19453,-10.4745 -0.127641,-13.8633 0.06689,-3.3888 0.378759,-3.5226 0.913123,-3.1884 0.534363,0.3341 1.291687,1.1362 2.513541,2.375 1.221854,1.2388 2.907961,2.9144 3.732072,4.8297 0.824109,1.9154 0.786165,4.0703 0.922941,5.6602 0.136776,1.5898 0.448218,2.6143 1.183391,1.7901 0.735172,-0.8243 1.89325,-3.4964 1.336353,-6.2803 -0.556902,-2.7839 -2.828146,-5.6792 -4.810563,-7.6616 -1.98242,-1.9825 -3.675428,-3.0517 -4.900478,-4.5217 -1.225047,-1.4701 -1.9823,-3.3407 -2.449978,-3.4076 z"
         style="opacity:1;fill:none;fill-opacity:1;fill-rule:nonzero;stroke:#000000;stroke-width:0.265;stroke-linecap:round;stroke-linejoin:round;stroke-miterlimit:4;stroke-dasharray:none;stroke-dashoffset:0;stroke-opacity:1;paint-order:normal" />
    </g>
    <g
       style="fill:#11a5c1;fill-opacity:1"
       transform="translate(0,16.564285)"
       id="g1537">
      <path
         id="rect1189"
         style="opacity:1;fill:#11a5c1;fill-opacity:1;fill-rule:nonzero;stroke:none;stroke-width:0;stroke-linecap:round;stroke-linejoin:round;stroke-miterlimit:4;stroke-dasharray:none;stroke-dashoffset:0;stroke-opacity:1;paint-order:normal"
         d="m 50.091797,4277.9004 c -1.76761,-0.2532 -2.439997,6.3155 -3.029297,25.2558 -0.5893,18.9408 -1.094571,50.2599 -2.525391,65.3262 -0.414871,4.3684 -0.909003,7.3401 -1.457031,9.3731 a 18.928571,27.857143 78.370321 0 0 -18.841797,-0.8809 18.928571,27.857143 78.370321 0 0 -23.46874975,24.1563 18.928571,27.857143 78.370321 0 0 31.10156275,12.9238 18.928571,27.857143 78.370321 0 0 23.595703,-19.8067 l 0.09766,0.076 c 0.505081,-4.7138 0.991608,-9.2583 0.904297,-24.6992 -0.08731,-15.4409 -0.735231,-39.5904 -0.482422,-52.3984 0.252813,-12.8081 1.431529,-13.3136 3.451172,-12.0508 2.01964,1.2631 4.881969,4.2945 9.5,8.9765 4.618031,4.6821 10.990719,11.0146 14.105469,18.2539 3.114742,7.2394 2.971332,15.3855 3.488281,21.3946 0.516949,6.0087 1.69405,9.8791 4.472656,6.7637 2.778603,-3.1151 7.155589,-13.2145 5.050782,-23.7364 -2.104827,-10.5222 -10.689041,-21.4645 -18.181641,-28.957 -7.492611,-7.4929 -13.891374,-11.5336 -18.521485,-17.0899 -4.630098,-5.5562 -7.492163,-12.626 -9.259765,-12.8789 z"
         transform="matrix(0.26458333,0,0,0.26458333,0.02620305,0.35180611)" />
      <path
         style="opacity:1;fill:#11a5c1;fill-opacity:1;fill-rule:nonzero;stroke:#000000;stroke-width:0.265;stroke-linecap:round;stroke-linejoin:round;stroke-miterlimit:4;stroke-dasharray:none;stroke-dashoffset:0;stroke-opacity:1;paint-order:normal"
         d="m 13.27966,1132.2132 c -0.46768,-0.067 -0.645583,1.6705 -0.801502,6.6818 -0.155919,5.0114 -0.289605,13.2981 -0.668176,17.2844 -0.109768,1.1558 -0.240507,1.942 -0.385506,2.4799 a 5.0081843,7.3705357 78.370321 0 0 -4.9852255,-0.2331 5.0081843,7.3705357 78.370321 0 0 -6.20944003,6.3914 5.0081843,7.3705357 78.370321 0 0 8.22895483,3.4195 5.0081843,7.3705357 78.370321 0 0 6.2430307,-5.2406 l 0.02584,0.02 c 0.133636,-1.2472 0.262364,-2.4496 0.239263,-6.535 -0.0231,-4.0854 -0.19453,-10.4745 -0.127641,-13.8633 0.06689,-3.3888 0.378759,-3.5226 0.913123,-3.1885 0.534363,0.3342 1.291687,1.1363 2.513541,2.3751 1.221854,1.2388 2.907961,2.9143 3.732072,4.8297 0.824109,1.9154 0.786165,4.0703 0.922941,5.6602 0.136776,1.5898 0.448218,2.6143 1.183391,1.79 0.735172,-0.8242 1.89325,-3.4963 1.336353,-6.2802 -0.556902,-2.784 -2.828146,-5.6792 -4.810563,-7.6616 -1.98242,-1.9825 -3.675428,-3.0517 -4.900478,-4.5218 -1.225047,-1.4701 -1.9823,-3.3406 -2.449978,-3.4075 z"
         id="path1191"
         inkscape:connector-curvature="0" />
    </g>
  </g>
</svg>
