<?xml version="1.0" encoding="UTF-8" standalone="no"?>
<svg
   xmlns:dc="http://purl.org/dc/elements/1.1/"
   xmlns:cc="http://creativecommons.org/ns#"
   xmlns:rdf="http://www.w3.org/1999/02/22-rdf-syntax-ns#"
   xmlns:svg="http://www.w3.org/2000/svg"
   xmlns="http://www.w3.org/2000/svg"
   xmlns:sodipodi="http://sodipodi.sourceforge.net/DTD/sodipodi-0.dtd"
   xmlns:inkscape="http://www.inkscape.org/namespaces/inkscape"
   sodipodi:docname="drawing.svg"
   inkscape:version="1.0 (4035a4fb49, 2020-05-01)"
   id="svg8"
   version="1.1"
   viewBox="0 0 25.797646 221.72012"
   height="221.72012mm"
   width="25.797646mm">
  <defs
     id="defs2">
    <inkscape:path-effect
       only_selected="false"
       apply_with_weight="true"
       apply_no_weight="true"
       helper_size="0"
       steps="2"
       weight="33.333333"
       is_visible="true"
       id="path-effect4533"
       effect="bspline" />
  </defs>
  <sodipodi:namedview
     inkscape:document-rotation="0"
     inkscape:window-maximized="1"
     inkscape:window-y="34"
     inkscape:window-x="0"
     inkscape:window-height="1022"
     inkscape:window-width="1916"
     fit-margin-bottom="0"
     fit-margin-right="0"
     fit-margin-left="0"
     fit-margin-top="0"
     showgrid="false"
     inkscape:current-layer="layer1"
     inkscape:document-units="mm"
     inkscape:cy="364.77327"
     inkscape:cx="48.554737"
     inkscape:zoom="0.98994949"
     inkscape:pageshadow="2"
     inkscape:pageopacity="0.0"
     borderopacity="1.0"
     bordercolor="#666666"
     pagecolor="#ffffff"
     id="base" />
  <metadata
     id="metadata5">
    <rdf:RDF>
      <cc:Work
         rdf:about="">
        <dc:format>image/svg+xml</dc:format>
        <dc:type
           rdf:resource="http://purl.org/dc/dcmitype/StillImage" />
        <dc:title></dc:title>
      </cc:Work>
    </rdf:RDF>
  </metadata>
  <g
     transform="translate(-0.02620305,-0.35180611)"
     id="layer1"
     inkscape:groupmode="layer"
     inkscape:label="Layer 1">
    <path
       inkscape:connector-curvature="0"
       id="path4518"
       d="M 13.27966,0.48568463 C 12.81198,0.4187903 12.634077,2.1561333 12.478158,7.1674472 12.322239,12.178759 12.188553,20.465436 11.809982,24.451662 c -0.109768,1.155813 -0.240507,1.942057 -0.385506,2.479952 a 5.0081843,7.3705357 78.370321 0 0 -4.9852255,-0.23306 5.0081843,7.3705357 78.370321 0 0 -6.20944006,6.391341 5.0081843,7.3705357 78.370321 0 0 8.22895486,3.41943 5.0081843,7.3705357 78.370321 0 0 6.2430307,-5.240507 l 0.02584,0.01964 C 14.861272,30.041202 14.99,28.8388 14.966899,24.753456 14.943799,20.66811 14.772369,14.278972 14.839258,10.89022 c 0.06689,-3.3887527 0.378759,-3.5225924 0.913123,-3.1884356 0.534363,0.3341571 1.291687,1.1362478 2.513541,2.3750496 1.221854,1.238799 2.907961,2.91432 3.732072,4.829678 0.824109,1.915358 0.786165,4.070268 0.922941,5.660119 0.136776,1.589853 0.448218,2.614325 1.183391,1.790071 0.735172,-0.824251 1.89325,-3.496324 1.336353,-6.280236 C 24.883777,13.292553 22.612533,10.397345 20.630116,8.4149163 18.647696,6.4324881 16.954688,5.3633005 15.729638,3.8932285 14.504591,2.4231559 13.747338,0.55257843 13.27966,0.48568463 Z"
       style="opacity:1;fill:none;fill-opacity:1;fill-rule:nonzero;stroke:#000000;stroke-width:0.265;stroke-linecap:round;stroke-linejoin:round;stroke-miterlimit:4;stroke-dasharray:none;stroke-dashoffset:0;stroke-opacity:1;paint-order:normal" />
    <g
       transform="translate(-0.01594771)"
       id="g164">
      <path
         style="opacity:1;fill:#119c4a;fill-opacity:1;fill-rule:nonzero;stroke:#000000;stroke-width:0.742296;stroke-linecap:round;stroke-linejoin:round;stroke-miterlimit:4;stroke-dasharray:none;stroke-dashoffset:0;stroke-opacity:1;paint-order:normal"
         d="m 4.921875,251.79492 a 18.928571,27.857143 78.370321 0 0 -3.9921875,13.26953 18.928571,27.857143 78.370321 0 0 19.9042965,13.60157 h 6.552735 a 18.928571,27.857143 78.370321 0 0 4.644531,-0.67774 18.928571,27.857143 78.370321 0 0 23.595703,-19.80664 l 0.09766,0.0742 c 0.205608,-1.91898 0.406359,-3.85168 0.56836,-6.46094 z"
         transform="scale(0.26458333)"
         id="rect4550"
         inkscape:connector-curvature="0" />
      <path
         inkscape:connector-curvature="0"
         id="path4552"
         d="m 13.295608,37.52735 c -0.46768,-0.06689 -0.645583,1.670449 -0.801502,6.681763 -0.155919,5.011312 -0.289605,13.297989 -0.668176,17.284215 -0.109768,1.155813 -0.240507,1.942057 -0.385506,2.479952 a 5.0081843,7.3705357 78.370321 0 0 -4.9852258,-0.23306 5.0081843,7.3705357 78.370321 0 0 -6.20944005,6.391341 5.0081843,7.3705357 78.370321 0 0 8.22895485,3.41943 5.0081843,7.3705357 78.370321 0 0 6.243031,-5.240507 l 0.02584,0.01964 c 0.133636,-1.247256 0.262364,-2.449658 0.239263,-6.535002 -0.0231,-4.085346 -0.19453,-10.474484 -0.127641,-13.863236 0.06689,-3.388753 0.378759,-3.522593 0.913123,-3.188436 0.534363,0.334157 1.291687,1.136248 2.513541,2.37505 1.221854,1.238799 2.907961,2.91432 3.732072,4.829678 0.824109,1.915358 0.786165,4.070268 0.922941,5.660119 0.136776,1.589853 0.448218,2.614325 1.183391,1.790071 0.735172,-0.824251 1.89325,-3.496324 1.336353,-6.280236 -0.556902,-2.783913 -2.828146,-5.679121 -4.810563,-7.66155 -1.98242,-1.982428 -3.675428,-3.051616 -4.900478,-4.521688 -1.225047,-1.470073 -1.9823,-3.34065 -2.449978,-3.407544 z"
         style="opacity:1;fill:none;fill-opacity:1;fill-rule:nonzero;stroke:#000000;stroke-width:0.265;stroke-linecap:round;stroke-linejoin:round;stroke-miterlimit:4;stroke-dasharray:none;stroke-dashoffset:0;stroke-opacity:1;paint-order:normal" />
    </g>
    <g
       transform="matrix(0.9997696,0,0,0.99998966,-0.00942515,7.5862081e-4)"
       id="g168">
      <path
         style="opacity:1;fill:#119c4a;fill-opacity:1;fill-rule:nonzero;stroke:#000000;stroke-width:1.05241;stroke-linecap:round;stroke-linejoin:round;stroke-miterlimit:4;stroke-dasharray:none;stroke-dashoffset:0;stroke-opacity:1;paint-order:normal"
         d="m 45.287109,364.33789 c -0.179703,2.97593 -0.370156,5.7649 -0.589843,8.07813 -0.414872,4.36843 -0.909004,7.34003 -1.457032,9.37304 A 18.928571,27.857143 78.370321 0 0 24.398438,380.9082 18.928571,27.857143 78.370321 0 0 0.9296875,405.06445 18.928571,27.857143 78.370321 0 0 19.203125,418.51172 h 9.455078 a 18.928571,27.857143 78.370321 0 0 3.373047,-0.52344 18.928571,27.857143 78.370321 0 0 23.595703,-19.80664 l 0.09766,0.0742 c 0.505081,-4.71405 0.991608,-9.2586 0.904297,-24.69922 -0.0156,-2.7585 -0.06242,-6.01874 -0.105468,-9.21875 z m 42.699219,0 c 0.711688,1.49653 1.725538,1.78832 3.177734,0.16016 0.0418,-0.0469 0.08641,-0.11015 0.128907,-0.16016 z"
         transform="scale(0.26458333)"
         id="rect4556"
         inkscape:connector-curvature="0" />
      <path
         style="opacity:1;fill:none;fill-opacity:1;fill-rule:nonzero;stroke:#000000;stroke-width:0.265;stroke-linecap:round;stroke-linejoin:round;stroke-miterlimit:4;stroke-dasharray:none;stroke-dashoffset:0;stroke-opacity:1;paint-order:normal"
         d="m 13.295608,74.569016 c -0.46768,-0.06689 -0.645583,1.670449 -0.801502,6.681763 -0.155919,5.011312 -0.289605,13.297989 -0.668176,17.28419 -0.109768,1.155814 -0.240507,1.942051 -0.385506,2.479951 a 5.0081843,7.3705357 78.370321 0 0 -4.9852258,-0.23306 5.0081843,7.3705357 78.370321 0 0 -6.20944005,6.39134 5.0081843,7.3705357 78.370321 0 0 8.22895485,3.41944 5.0081843,7.3705357 78.370321 0 0 6.243031,-5.24051 l 0.02584,0.0196 c 0.133636,-1.24726 0.262364,-2.44967 0.239263,-6.535001 -0.0231,-4.085329 -0.19453,-10.474465 -0.127641,-13.863217 0.06689,-3.388753 0.378759,-3.522593 0.913123,-3.188436 0.534363,0.334157 1.291687,1.136248 2.513541,2.37505 1.221854,1.238799 2.907961,2.91432 3.732072,4.829678 0.824109,1.915358 0.786165,4.070268 0.922941,5.660119 0.136776,1.589851 0.448218,2.614315 1.183391,1.790058 0.735172,-0.824244 1.89325,-3.496311 1.336353,-6.280223 -0.556902,-2.783913 -2.828146,-5.679121 -4.810563,-7.66155 -1.98242,-1.982428 -3.675428,-3.051616 -4.900478,-4.521688 -1.225047,-1.470073 -1.9823,-3.34065 -2.449978,-3.407544 z"
         id="path4558"
         inkscape:connector-curvature="0" />
    </g>
    <g
       transform="matrix(0.99772713,0,0,0.99999715,2.0936087e-4,3.0811685e-4)"
       id="g172">
      <path
         style="opacity:1;fill:#119c4a;fill-opacity:1;fill-rule:nonzero;stroke:#000000;stroke-width:1.32476;stroke-linecap:round;stroke-linejoin:round;stroke-miterlimit:4;stroke-dasharray:none;stroke-dashoffset:0;stroke-opacity:1;paint-order:normal"
         d="m 46.396484,476.85938 c -0.398124,13.60859 -0.897627,27.11613 -1.699218,35.55664 -0.414872,4.36841 -0.909004,7.34007 -1.457032,9.37304 A 18.928571,27.857143 78.370321 0 0 24.398438,520.9082 18.928571,27.857143 78.370321 0 0 0.76171875,541.10938 v 2.85937 a 18.928571,27.857143 78.370321 0 0 0.16796875,1.0957 18.928571,27.857143 78.370321 0 0 17.4687505,13.31055 h 11.402343 a 18.928571,27.857143 78.370321 0 0 2.230469,-0.38672 18.928571,27.857143 78.370321 0 0 23.595703,-19.80664 l 0.09766,0.0742 c 0.505081,-4.71405 0.991608,-9.25853 0.904297,-24.69922 -0.05871,-10.38235 -0.357136,-24.53597 -0.478515,-36.69726 z m 37.013672,0 c 2.891952,7.1076 2.776573,15.0068 3.28125,20.87304 0.516949,6.00892 1.69405,9.8809 4.472656,6.76563 2.778603,-3.11528 7.155589,-13.21447 5.050782,-23.73633 -0.259342,-1.29643 -0.618635,-2.60038 -1.060547,-3.90234 z"
         transform="scale(0.26458333)"
         id="rect4560"
         inkscape:connector-curvature="0" />
      <path
         inkscape:connector-curvature="0"
         id="path4562"
         d="m 13.295608,111.6107 c -0.46768,-0.0669 -0.645583,1.67045 -0.801502,6.68176 -0.155919,5.01132 -0.289605,13.298 -0.668176,17.28423 -0.109768,1.15581 -0.240507,1.94206 -0.385506,2.47995 a 5.0081843,7.3705357 78.370321 0 0 -4.9852258,-0.23306 5.0081843,7.3705357 78.370321 0 0 -6.20944005,6.39135 5.0081843,7.3705357 78.370321 0 0 8.22895485,3.41943 5.0081843,7.3705357 78.370321 0 0 6.243031,-5.24051 l 0.02584,0.0196 c 0.133636,-1.24726 0.262364,-2.44966 0.239263,-6.53501 -0.0231,-4.08535 -0.19453,-10.47449 -0.127641,-13.86324 0.06689,-3.38876 0.378759,-3.5226 0.913123,-3.18844 0.534363,0.33416 1.291687,1.13625 2.513541,2.37505 1.221854,1.2388 2.907961,2.91432 3.732072,4.82968 0.824109,1.91536 0.786165,4.07027 0.922941,5.66012 0.136776,1.58986 0.448218,2.61433 1.183391,1.79008 0.735172,-0.82425 1.89325,-3.49633 1.336353,-6.28024 -0.556902,-2.78392 -2.828146,-5.67913 -4.810563,-7.66156 -1.98242,-1.98243 -3.675428,-3.05161 -4.900478,-4.52169 -1.225047,-1.47007 -1.9823,-3.34065 -2.449978,-3.40754 z"
         style="opacity:1;fill:none;fill-opacity:1;fill-rule:nonzero;stroke:#000000;stroke-width:0.265;stroke-linecap:round;stroke-linejoin:round;stroke-miterlimit:4;stroke-dasharray:none;stroke-dashoffset:0;stroke-opacity:1;paint-order:normal" />
    </g>
    <g
       transform="matrix(0.99686867,0,0,1.0000003,2.9627042e-4,2.5863893e-5)"
       id="g176">
      <path
         style="opacity:1;fill:#119c4a;fill-opacity:1;fill-rule:nonzero;stroke:#000000;stroke-width:1.48943;stroke-linecap:round;stroke-linejoin:round;stroke-miterlimit:4;stroke-dasharray:none;stroke-dashoffset:0;stroke-opacity:1;paint-order:normal"
         d="m 47.160156,589.33008 c -0.564304,19.07948 -1.081912,48.54468 -2.46289,63.08594 -0.414872,4.36845 -0.909004,7.34003 -1.457032,9.37304 A 18.928571,27.857143 78.370321 0 0 24.398438,660.9082 18.928571,27.857143 78.370321 0 0 0.84375,680.4043 v 4.09961 a 18.928571,27.857143 78.370321 0 0 0.0859375,0.56054 18.928571,27.857143 78.370321 0 0 16.9804685,13.22852 h 12.439453 a 18.928571,27.857143 78.370321 0 0 1.681641,-0.30469 18.928571,27.857143 78.370321 0 0 23.595703,-19.80664 l 0.09766,0.0742 c 0.505081,-4.71405 0.991608,-9.25856 0.904297,-24.69922 -0.08731,-15.44069 -0.73523,-39.58861 -0.482422,-52.39648 0.14307,-7.24816 0.582012,-10.55255 1.302735,-11.83008 z m 12.753906,0 c 2.001045,1.36677 4.79466,4.30602 9.183594,8.75586 4.618031,4.68208 10.990719,11.01475 14.105469,18.2539 3.114743,7.23916 2.971333,15.3837 3.488281,21.39258 0.516949,6.00892 1.69405,9.88094 4.472656,6.76563 2.778603,-3.11528 7.155589,-13.21443 5.050782,-23.73633 -2.104827,-10.52187 -10.689041,-21.46438 -18.181641,-28.95703 -0.871726,-0.87173 -1.725356,-1.6885 -2.566406,-2.47461 z"
         transform="scale(0.26458333)"
         id="rect4564"
         inkscape:connector-curvature="0" />
      <path
         style="opacity:1;fill:none;fill-opacity:1;fill-rule:nonzero;stroke:#000000;stroke-width:0.265;stroke-linecap:round;stroke-linejoin:round;stroke-miterlimit:4;stroke-dasharray:none;stroke-dashoffset:0;stroke-opacity:1;paint-order:normal"
         d="m 13.295608,148.65238 c -0.46768,-0.0669 -0.645583,1.67045 -0.801502,6.68177 -0.155919,5.01131 -0.289605,13.29799 -0.668176,17.28422 -0.109768,1.15582 -0.240507,1.94206 -0.385506,2.47996 a 5.0081843,7.3705357 78.370321 0 0 -4.9852258,-0.23306 5.0081843,7.3705357 78.370321 0 0 -6.20944005,6.39134 5.0081843,7.3705357 78.370321 0 0 8.22895485,3.41944 5.0081843,7.3705357 78.370321 0 0 6.243031,-5.24051 l 0.02584,0.0196 c 0.133636,-1.24726 0.262364,-2.44967 0.239263,-6.53501 -0.0231,-4.08535 -0.19453,-10.47449 -0.127641,-13.86324 0.06689,-3.38876 0.378759,-3.5226 0.913123,-3.18844 0.534363,0.33415 1.291687,1.13624 2.513541,2.37505 1.221854,1.2388 2.907961,2.91432 3.732072,4.82968 0.824109,1.91536 0.786165,4.07027 0.922941,5.66012 0.136776,1.58986 0.448218,2.61433 1.183391,1.79007 0.735172,-0.82425 1.89325,-3.49632 1.336353,-6.28024 -0.556902,-2.78391 -2.828146,-5.67912 -4.810563,-7.66155 -1.98242,-1.98243 -3.675428,-3.05162 -4.900478,-4.52169 -1.225047,-1.47008 -1.9823,-3.34065 -2.449978,-3.40755 z"
         id="path4566"
         inkscape:connector-curvature="0" />
    </g>
    <g
       transform="matrix(0.99597135,0,0,1.0000036,3.870089e-4,-5.1130322e-4)"
       id="g180">
      <path
         style="opacity:1;fill:#119c4a;fill-opacity:1;fill-rule:nonzero;stroke:#000000;stroke-width:1.66503;stroke-linecap:round;stroke-linejoin:round;stroke-miterlimit:4;stroke-dasharray:none;stroke-dashoffset:0;stroke-opacity:1;paint-order:normal"
         d="m 50.251953,701.83594 c -1.767609,-0.25285 -2.439997,6.31348 -3.029297,25.2539 -0.5893,18.94039 -1.094571,50.26019 -2.52539,65.32618 -0.414872,4.36841 -0.909004,7.34003 -1.457032,9.37304 A 18.928571,27.857143 78.370321 0 0 24.398438,800.9082 18.928571,27.857143 78.370321 0 0 0.93164062,819.78711 v 5.28516 A 18.928571,27.857143 78.370321 0 0 17.394531,838.20508 h 13.439453 a 18.928571,27.857143 78.370321 0 0 1.197266,-0.2168 18.928571,27.857143 78.370321 0 0 23.595703,-19.80664 l 0.09766,0.0742 c 0.505081,-4.71405 0.991608,-9.2586 0.904297,-24.69922 -0.08731,-15.44062 -0.73523,-39.58861 -0.482422,-52.39648 0.252813,-12.80788 1.431529,-13.31371 3.451172,-12.05078 2.01964,1.26296 4.881969,4.29444 9.5,8.97656 4.618031,4.68208 10.990719,11.01479 14.105469,18.2539 3.114743,7.2392 2.971333,15.3837 3.488281,21.39258 0.516949,6.00888 1.69405,9.8809 4.472656,6.76563 2.778603,-3.11528 7.155589,-13.21447 5.050782,-23.73633 -2.104827,-10.52187 -10.689041,-21.46438 -18.181641,-28.95703 -7.492611,-7.49265 -13.891374,-11.53364 -18.521484,-17.08985 -4.630099,-5.55617 -7.492164,-12.62609 -9.259766,-12.8789 z"
         transform="scale(0.26458333)"
         id="rect4568"
         inkscape:connector-curvature="0" />
      <path
         inkscape:connector-curvature="0"
         id="path4570"
         d="m 13.295608,185.69407 c -0.46768,-0.0669 -0.645583,1.67045 -0.801502,6.68177 -0.155919,5.01131 -0.289605,13.29799 -0.668176,17.2842 -0.109768,1.15581 -0.240507,1.94205 -0.385506,2.47995 a 5.0081843,7.3705357 78.370321 0 0 -4.9852258,-0.23306 5.0081843,7.3705357 78.370321 0 0 -6.20944005,6.39134 5.0081843,7.3705357 78.370321 0 0 8.22895485,3.41944 5.0081843,7.3705357 78.370321 0 0 6.243031,-5.24051 l 0.02584,0.0196 c 0.133636,-1.24726 0.262364,-2.44967 0.239263,-6.535 -0.0231,-4.08533 -0.19453,-10.47448 -0.127641,-13.86323 0.06689,-3.38875 0.378759,-3.52259 0.913123,-3.18844 0.534363,0.33416 1.291687,1.13625 2.513541,2.37506 1.221854,1.2388 2.907961,2.91432 3.732072,4.82967 0.824109,1.91537 0.786165,4.07028 0.922941,5.66013 0.136776,1.58985 0.448218,2.61431 1.183391,1.79006 0.735172,-0.82425 1.89325,-3.49632 1.336353,-6.28023 -0.556902,-2.78391 -2.828146,-5.67912 -4.810563,-7.66155 -1.98242,-1.98243 -3.675428,-3.05162 -4.900478,-4.5217 -1.225047,-1.47007 -1.9823,-3.34065 -2.449978,-3.40754 z"
         style="opacity:1;fill:none;fill-opacity:1;fill-rule:nonzero;stroke:#000000;stroke-width:0.265;stroke-linecap:round;stroke-linejoin:round;stroke-miterlimit:4;stroke-dasharray:none;stroke-dashoffset:0;stroke-opacity:1;paint-order:normal" />
    </g>
  </g>
</svg>
