<?xml version="1.0" encoding="UTF-8" standalone="no"?>
<svg
   xmlns:dc="http://purl.org/dc/elements/1.1/"
   xmlns:cc="http://creativecommons.org/ns#"
   xmlns:rdf="http://www.w3.org/1999/02/22-rdf-syntax-ns#"
   xmlns:svg="http://www.w3.org/2000/svg"
   xmlns="http://www.w3.org/2000/svg"
   xmlns:sodipodi="http://sodipodi.sourceforge.net/DTD/sodipodi-0.dtd"
   xmlns:inkscape="http://www.inkscape.org/namespaces/inkscape"
   inkscape:export-ydpi="96"
   inkscape:export-xdpi="96"
   inkscape:export-filename="/home/shay/.config/awesome/battery_drawing.png"
   width="210mm"
   height="297mm"
   viewBox="0 0 210 297"
   version="1.1"
   id="svg8"
   inkscape:version="1.0 (4035a4fb49, 2020-05-01)"
   sodipodi:docname="battery_drawing.svg">
  <defs
     id="defs2">
    <inkscape:path-effect
       effect="bspline"
       id="path-effect874"
       is_visible="true"
       lpeversion="1"
       weight="33.333333"
       steps="2"
       helper_size="0"
       apply_no_weight="true"
       apply_with_weight="true"
       only_selected="false" />
    <inkscape:path-effect
       effect="bspline"
       id="path-effect870"
       is_visible="true"
       lpeversion="1"
       weight="33.333333"
       steps="2"
       helper_size="0"
       apply_no_weight="true"
       apply_with_weight="true"
       only_selected="false" />
    <inkscape:path-effect
       effect="bspline"
       id="path-effect866"
       is_visible="true"
       lpeversion="1"
       weight="33.333333"
       steps="2"
       helper_size="0"
       apply_no_weight="true"
       apply_with_weight="true"
       only_selected="false" />
    <inkscape:path-effect
       effect="bspline"
       id="path-effect858"
       is_visible="true"
       lpeversion="1"
       weight="33.333333"
       steps="2"
       helper_size="0"
       apply_no_weight="true"
       apply_with_weight="true"
       only_selected="false" />
  </defs>
  <sodipodi:namedview
     id="base"
     pagecolor="#2b283a"
     bordercolor="#666666"
     borderopacity="1.0"
     inkscape:pageopacity="0"
     inkscape:pageshadow="2"
     inkscape:zoom="3.1566482"
     inkscape:cx="171.65567"
     inkscape:cy="111.34091"
     inkscape:document-units="mm"
     inkscape:current-layer="layer1"
     inkscape:document-rotation="0"
     showgrid="false"
     inkscape:window-width="1916"
     inkscape:window-height="1022"
     inkscape:window-x="0"
     inkscape:window-y="34"
     inkscape:window-maximized="1" />
  <metadata
     id="metadata5">
    <rdf:RDF>
      <cc:Work
         rdf:about="">
        <dc:format>image/svg+xml</dc:format>
        <dc:type
           rdf:resource="http://purl.org/dc/dcmitype/StillImage" />
        <dc:title></dc:title>
      </cc:Work>
    </rdf:RDF>
  </metadata>
  <g
     inkscape:label="Layer 1"
     inkscape:groupmode="layer"
     id="layer1">
    <path
       d="M 5.702517,11.647555 V 38.061753 H 20.656322 V 11.647555 Z"
       style="fill:#00c700;fill-opacity:1;stroke:none;stroke-width:0.438102;stroke-linecap:round;stroke-linejoin:round"
       id="rect1569" />
    <path
       id="rect839"
       style="fill:none;fill-opacity:1;stroke:#000000;stroke-width:0.646351;stroke-linecap:round;stroke-linejoin:round;stroke-miterlimit:4;stroke-dasharray:none;stroke-opacity:1"
       d="m 5.70266,5.881879 c 2.432759,1.250189 4.353831,3.44801 7.373696,3.501722 C 16.664959,9.196847 18.104579,7.132068 20.6564,5.881879 V 38.061604 H 5.70266 Z"
       sodipodi:nodetypes="cccccc" />
    <ellipse
       ry="2.3728151"
       rx="1.632635"
       style="fill:none;fill-opacity:1;stroke:#000000;stroke-width:0.46141;stroke-linecap:round;stroke-linejoin:round;stroke-miterlimit:4;stroke-dasharray:none;stroke-opacity:1"
       id="path844"
       cx="10.055003"
       cy="4.2112284" />
    <ellipse
       ry="0.83263445"
       rx="0.57290095"
       cy="4.2112284"
       cx="10.055003"
       id="circle848"
       style="fill:#000000;fill-opacity:1;stroke:#000000;stroke-width:0.161912;stroke-linecap:round;stroke-linejoin:round;stroke-miterlimit:4;stroke-dasharray:none;stroke-opacity:1" />
    <ellipse
       ry="2.3728151"
       rx="1.632635"
       cy="4.2112284"
       cx="15.281625"
       id="circle850"
       style="fill:none;fill-opacity:1;stroke:#000000;stroke-width:0.46141;stroke-linecap:round;stroke-linejoin:round;stroke-miterlimit:4;stroke-dasharray:none;stroke-opacity:1" />
    <ellipse
       ry="0.83263445"
       rx="0.57290095"
       style="fill:#000000;fill-opacity:1;stroke:#000000;stroke-width:0.161912;stroke-linecap:round;stroke-linejoin:round;stroke-miterlimit:4;stroke-dasharray:none;stroke-opacity:1"
       id="circle852"
       cx="15.281625"
       cy="4.2112284" />
    <path
       style="fill:none;stroke:#000000;stroke-width:0.26254px;stroke-linecap:butt;stroke-linejoin:miter;stroke-opacity:1"
       d="m 8.307394,28.312833 0.868706,-1.889279 1.137267,1.8581 1.014718,-1.859227 1.119013,1.754742 0.969151,-1.577582 1.315003,1.706657 0.928738,-1.638904 1.192651,1.690989 0.918489,-1.572919"
       id="path854" />
    <path
       d="m 1.984983,23.413464 c -0.397418,-0.422353 -0.794976,-0.844855 -1.13904096,-0.67447 -0.344064,0.170387 -0.636863,0.94003 -0.481171,1.302391 0.155691,0.362361 0.75850496,0.320765 1.06186996,0.309538 0.303367,-0.01123 0.305738,1.57e-4 0.04029,0.355451 -0.26545,0.355292 -0.79937996,1.050962 -0.94645696,1.663705 -0.147077,0.612742 0.09256,1.142336 0.421889,0.851918 C 1.271691,26.931581 1.69085,25.82128 1.905271,25.277097 c 0.21442,-0.544185 0.223946,-0.522313 0.26319,0.243153 0.03924,0.765463 0.107978,2.26743 0.298728,2.891366 0.19075,0.623934 0.50709,0.363481 0.563002,-0.521012 0.05591,-0.884494 -0.146783,-2.394759 -0.349515,-3.90532 M 5.664992,16.200687 C 4.958715,15.727881 4.252301,15.254982 3.638873,16.457195 3.025445,17.65941 2.505201,20.536509 1.984984,23.413464 m 0.695699,0.571828 c 0.306808,-1.476807 0.61365,-2.95378 0.868483,-4.019003 0.254833,-1.065224 0.457647,-1.718578 0.789236,-2.018616 0.33159,-0.300038 0.791798,-0.246601 1.251904,-0.193171"
       style="fill:none;stroke:#000000;stroke-width:0.148915px;stroke-linecap:butt;stroke-linejoin:miter;stroke-opacity:1"
       id="path872" />
    <path
       id="path1567"
       style="fill:none;stroke:#000000;stroke-width:0.148915px;stroke-linecap:butt;stroke-linejoin:miter;stroke-opacity:1"
       d="m 24.435424,23.413464 c 0.397417,-0.422353 0.794975,-0.844855 1.139041,-0.67447 0.344065,0.170387 0.636863,0.94003 0.481172,1.302391 -0.155691,0.362361 -0.758506,0.320765 -1.061872,0.309538 -0.303366,-0.01123 -0.305737,1.57e-4 -0.04029,0.355451 0.265448,0.355292 0.799379,1.050962 0.946456,1.663705 0.147077,0.612742 -0.09256,1.142336 -0.421888,0.851918 -0.32933,-0.290416 -0.748488,-1.400717 -0.962909,-1.9449 -0.214421,-0.544185 -0.223947,-0.522313 -0.26319,0.243153 -0.03924,0.765463 -0.107979,2.26743 -0.298728,2.891366 -0.19075,0.623934 -0.50709,0.363481 -0.563002,-0.521012 -0.05591,-0.884494 0.146782,-2.394759 0.349515,-3.90532 m -2.984315,-7.784597 c 0.706276,-0.472806 1.41269,-0.945705 2.026118,0.256508 0.613428,1.202215 1.133671,4.079314 1.653889,6.956269 m -0.6957,0.571828 c -0.306808,-1.476807 -0.613649,-2.95378 -0.868482,-4.019003 -0.254833,-1.065224 -0.457647,-1.718578 -0.789237,-2.018616 -0.331589,-0.300038 -0.791797,-0.246601 -1.251904,-0.193171" />
  </g>
</svg>
